<?xml version="1.0" encoding="UTF-8" standalone="no"?>
<svg
   xmlns:dc="http://purl.org/dc/elements/1.1/"
   xmlns:cc="http://creativecommons.org/ns#"
   xmlns:rdf="http://www.w3.org/1999/02/22-rdf-syntax-ns#"
   xmlns:svg="http://www.w3.org/2000/svg"
   xmlns="http://www.w3.org/2000/svg"
   xmlns:sodipodi="http://sodipodi.sourceforge.net/DTD/sodipodi-0.dtd"
   xmlns:inkscape="http://www.inkscape.org/namespaces/inkscape"
   width="4096"
   height="4096"
   version="1.1"
   id="svg10"
   sodipodi:docname="recaptcha-logo.svg"
   inkscape:export-filename="G:\Users\suitedoalex\sites\svg\recaptcha-logo-0.png"
   inkscape:export-xdpi="96"
   inkscape:export-ydpi="96"
   inkscape:version="0.92.2 (5c3e80d, 2017-08-06)">
  <metadata
     id="metadata16">
    <rdf:RDF>
      <cc:Work
         rdf:about="">
        <dc:format>image/svg+xml</dc:format>
        <dc:type
           rdf:resource="http://purl.org/dc/dcmitype/StillImage" />
        <dc:title></dc:title>
      </cc:Work>
    </rdf:RDF>
  </metadata>
  <defs
     id="defs14" />
  <sodipodi:namedview
     pagecolor="#ffffff"
     bordercolor="#666666"
     borderopacity="1"
     objecttolerance="10"
     gridtolerance="10"
     guidetolerance="10"
     inkscape:pageopacity="0"
     inkscape:pageshadow="2"
     inkscape:window-width="1600"
     inkscape:window-height="837"
     id="namedview12"
     showgrid="false"
     inkscape:zoom="0.098333334"
     inkscape:cx="1178.571"
     inkscape:cy="1349.8331"
     inkscape:window-x="-8"
     inkscape:window-y="-8"
     inkscape:window-maximized="1"
     inkscape:current-layer="svg10" />
  <path
     d="m 2913.1727,1678.2257 c -0.041,-12.32 -0.3252,-24.5746 -0.8775,-36.7699 V 946.16988 L 2720.0775,1138.3876 C 2562.7581,945.82218 2323.4346,822.82828 2055.3718,822.82828 c -278.9653,0 -526.798,133.1559 -683.4629,339.36892 l 315.0684,318.3821 c 30.8768,-57.1042 74.7405,-106.1512 127.629,-143.1953 55.0055,-42.9248 132.9431,-78.0215 240.7553,-78.0215 13.0245,0 23.0773,1.5137 30.4636,4.3897 133.5794,10.5425 249.367,84.2623 317.5435,191.2604 l -223.0209,223.0208 c 282.4836,-1.1045 601.602,-1.7591 732.8004,0.2046"
     style="fill:#1c3aa9;stroke-width:20.45499992"
     id="path2"
     inkscape:connector-curvature="0"
     inkscape:export-xdpi="1.8624142"
     inkscape:export-ydpi="1.8624142" />
  <path
     d="m 2050.3604,822.85898 c -12.3205,0 -24.5747,0.3272 -36.7699,0.8795 h -695.2859 l 192.2177,192.21772 c -192.5655,157.3194 -315.5593,396.6429 -315.5593,664.7057 0,278.9653 133.1579,526.7981 339.3689,683.4629 l 318.382,-315.0683 c -57.1042,-30.8769 -106.1512,-74.7406 -143.1952,-127.629 -42.9228,-55.0056 -78.0215,-132.9432 -78.0215,-240.7554 0,-13.0237 1.5219,-23.0773 4.3892,-30.4636 10.5432,-133.5793 84.2624,-249.3669 191.2604,-317.5434 l 223.0209,223.0208 c -1.1087,-282.4835 -1.7612,-601.60202 0.1432,-732.80032"
     style="fill:#4285f4;stroke-width:20.45499992"
     id="path4"
     inkscape:connector-curvature="0"
     inkscape:export-xdpi="1.8624142"
     inkscape:export-ydpi="1.8624142" />
  <path
     d="m 1194.9936,1680.6394 c 0.041,12.3201 0.3253,24.5746 0.8776,36.7699 v 695.2859 l 192.2176,-192.2176 c 157.3195,192.5654 396.6429,315.5592 664.7057,315.5592 278.9653,0 526.7981,-133.1559 683.4629,-339.3689 l -315.0683,-318.382 c -30.8769,57.1042 -74.7406,106.1512 -127.629,143.1952 -55.0055,42.9248 -132.9432,78.0215 -240.7554,78.0215 -13.0245,0 -23.0773,-1.5137 -30.4636,-4.3897 -133.5793,-10.5425 -249.3669,-84.2623 -317.5434,-191.2603 l 223.0209,-223.0209 c -282.4836,1.1046 -601.602,1.7591 -732.8004,-0.2046"
     style="fill:#ababab;stroke-width:20.45499992"
     id="path6"
     inkscape:connector-curvature="0"
     inkscape:export-xdpi="1.8624142"
     inkscape:export-ydpi="1.8624142" />
  <path
     d="m 1339.7332,2868.2363 c -20.8948,0 -39.6274,3.9621 -56.2001,11.8884 -16.5716,7.7443 -30.6211,18.8227 -42.1496,33.2333 -11.348,14.4085 -20.0839,31.8832 -26.209,52.4159 -5.9442,20.3527 -8.9163,43.1396 -8.9163,68.3565 v 72.6807 c 0,25.397 2.9721,48.2738 8.9163,68.6286 6.1243,20.3548 14.7704,37.7354 25.939,52.1459 11.1687,14.4106 24.6769,25.487 40.5275,33.2333 15.8506,7.7463 33.6833,11.6184 53.498,11.6184 20.3542,0 38.1875,-2.9721 53.498,-8.9163 15.4908,-5.9442 28.4591,-14.5006 38.9075,-25.667 10.4472,-11.3484 18.4629,-25.0369 24.0469,-41.0695 5.764,-16.0326 9.1865,-34.2233 10.2672,-54.578 h -49.9859 c -1.2611,15.6705 -3.4223,29.0911 -6.4847,40.2574 -3.0621,10.9864 -7.5652,20.0828 -13.5095,27.2891 -5.764,7.0242 -13.3293,12.2484 -22.6968,15.6705 -9.1864,3.2422 -20.5348,4.8622 -34.0433,4.8622 -14.4101,0 -26.659,-3.1501 -36.7453,-9.4564 -10.087,-6.4842 -18.2827,-15.3105 -24.587,-26.479 -6.1242,-11.1663 -10.6273,-24.2269 -13.5095,-39.1774 -2.7019,-14.9506 -4.0527,-31.0712 -4.0527,-48.3638 v -73.2207 c 0,-18.5527 1.6211,-35.3954 4.8634,-50.5259 3.4223,-15.1286 8.5559,-28.0091 15.4007,-38.6375 6.8449,-10.6264 15.4908,-18.8227 25.939,-24.5869 10.4472,-5.9422 22.8769,-8.9143 37.2854,-8.9143 12.0685,0 22.4248,1.8001 31.0712,5.4022 8.6461,3.4241 15.8509,8.8263 21.6148,16.2126 5.764,7.2043 10.1771,16.3906 13.2392,27.559 3.0622,11.1664 5.1336,24.4969 6.2143,39.9875 h 49.9859 c -0.9005,-21.2548 -4.233,-40.0775 -9.997,-56.4701 -5.764,-16.3926 -13.7797,-30.1711 -24.0469,-41.3396 -10.2672,-11.1684 -22.7869,-19.6347 -37.5554,-25.3969 -14.5901,-5.7642 -31.4311,-8.6463 -50.5259,-8.6463 z m 1220.1817,0 c -20.8948,0 -39.6275,3.9621 -56.2001,11.8884 -16.5717,7.7443 -30.6212,18.8227 -42.1496,33.2333 -11.3478,14.4085 -20.0842,31.8832 -26.209,52.4159 -5.944,20.3527 -8.9159,43.1396 -8.9159,68.3565 v 72.6807 c 0,25.397 2.9719,48.2738 8.9159,68.6286 6.1242,20.3548 14.7706,37.7354 25.939,52.1459 11.168,14.4106 24.6769,25.487 40.5275,33.2333 15.851,7.7442 33.6832,11.6184 53.498,11.6184 20.3539,0 38.1854,-2.9721 53.498,-8.9163 15.4906,-5.9442 28.459,-14.5006 38.9075,-25.667 10.4473,-11.3484 18.4628,-25.0369 24.0469,-41.0695 5.7642,-16.0326 9.1867,-34.2233 10.2671,-54.578 h -49.9838 c -1.26,15.6705 -3.4223,29.0911 -6.4846,40.2574 -3.0622,10.9864 -7.5653,20.0828 -13.5093,27.2891 -5.7641,7.0242 -13.3293,12.2484 -22.6969,15.6705 -9.1864,3.2422 -20.5348,4.8622 -34.0433,4.8622 -14.4101,0 -26.659,-3.1501 -36.7453,-9.4564 -10.087,-6.4842 -18.2829,-15.3105 -24.5869,-26.479 -6.1243,-11.1663 -10.6274,-24.2269 -13.5096,-39.1774 -2.7016,-14.9506 -4.0527,-31.0712 -4.0527,-48.3638 v -73.2207 c 0,-18.5527 1.6221,-35.3954 4.8634,-50.5259 3.4225,-15.1286 8.5559,-28.0091 15.401,-38.6375 6.8446,-10.6264 15.4907,-18.8227 25.9369,-24.5869 10.4474,-5.9422 22.8769,-8.9143 37.2854,-8.9143 12.0682,0 22.4248,1.8001 31.0711,5.4022 8.6461,3.4241 15.8512,8.8263 21.6148,16.2126 5.7638,7.2043 10.177,16.3906 13.2391,27.559 3.0621,11.1664 5.1336,24.4969 6.2144,39.9875 h 49.9839 c -0.9021,-21.2548 -4.2328,-40.0775 -9.997,-56.4701 -5.764,-16.3926 -13.7795,-30.1711 -24.0469,-41.3396 -10.2674,-11.1684 -22.7869,-19.6347 -37.5554,-25.3969 -14.5899,-5.7642 -31.4311,-8.6463 -50.5259,-8.6463 z m -935.3867,5.4042 -126.7187,393.3906 h 50.7959 l 30.5311,-102.6719 h 132.933 l 31.0711,102.6719 h 50.7959 l -126.9887,-393.3906 z m 222.8981,0 v 393.3906 h 49.4438 v -154.0078 h 75.9229 c 18.9133,0 35.6653,-2.6121 50.2559,-7.8363 14.5901,-5.4042 26.839,-13.1485 36.7453,-23.2369 10.087,-10.0863 17.6523,-22.5148 22.6948,-37.2854 5.2236,-14.9505 7.8355,-31.8811 7.8355,-50.7959 0,-17.4726 -2.6117,-33.5032 -7.8355,-48.0938 -5.0436,-14.7705 -12.5188,-27.469 -22.4248,-38.0974 -9.907,-10.8064 -22.2448,-19.1827 -37.0153,-25.1269 -14.5902,-5.9442 -31.3412,-8.9164 -50.2559,-8.9164 z m 280.7244,0 v 42.6896 h 103.2119 v 350.701 h 49.4438 v -350.701 h 103.4818 v -42.6896 z m 620.6252,0 v 393.3906 h 49.4438 v -181.8368 h 158.3299 v 181.8368 h 49.7138 v -393.3906 h -49.7138 v 169.1383 h -158.3299 v -169.1383 z m 444.9985,0 -126.7187,393.3906 h 50.7959 l 30.5311,-102.6719 h 132.933 l 31.0711,102.6719 h 50.7959 L 3236.194,2873.6405 Z m -1296.9084,42.6896 h 75.9229 c 12.0684,0 22.3348,2.16 30.8011,6.4842 8.6459,4.3221 15.671,10.0864 21.0748,17.2927 5.5838,7.2042 9.6368,15.5805 12.1584,25.1248 2.7019,9.3664 4.053,19.0948 4.053,29.1832 0,11.1664 -1.3508,21.4348 -4.053,30.8011 -2.5216,9.1864 -6.5746,17.2006 -12.1584,24.0469 -5.4038,6.6643 -12.4287,11.8864 -21.0748,15.6706 -8.4659,3.7821 -18.7331,5.6722 -30.8011,5.6722 h -75.9229 z m -251.2692,26.479 53.7681,178.8646 h -107.264 z m 1569.2463,0 53.768,178.8646 h -107.264 z m -2327.36991,26.479 c -12.42866,0 -23.14688,3.1521 -32.15321,9.4563 -8.82613,6.3042 -16.21141,14.8606 -22.15481,25.6669 l -0.81063,-29.7211 h -46.47172 v 292.3429 h 47.82379 v -209.1319 c 4.50317,-12.4285 10.89761,-22.2448 19.18331,-29.4511 8.46592,-7.2043 19.18352,-10.8085 32.15322,-10.8085 4.14295,0 7.83549,0.2046 11.07761,0.5319 3.24232,0.2045 6.75465,0.6341 10.53739,1.35 l -0.27021,-46.4717 c -0.72063,-0.3682 -1.89127,-0.7159 -3.51253,-1.0841 -1.44085,-0.5523 -3.06211,-1.0023 -4.86338,-1.3501 -1.80147,-0.3681 -3.69254,-0.6341 -5.67401,-0.8182 -1.80148,-0.3681 -3.42233,-0.5318 -4.86339,-0.5318 z m 160.76201,0 c -13.8698,0 -27.2891,2.4321 -40.2575,7.2942 -12.96907,4.8642 -24.49687,12.8785 -34.58327,24.0469 -9.9068,10.9884 -17.92247,25.3969 -24.04691,43.2296 -6.12422,17.6527 -9.18634,39.3575 -9.18634,65.1165 v 32.9632 c 0,22.3348 2.6119,41.6996 7.8355,58.0902 5.22359,16.3905 12.69885,29.9911 22.42485,40.7995 9.9069,10.6284 21.8848,18.5527 35.93527,23.7769 14.0497,5.2242 29.8111,7.8363 47.2838,7.8363 12.6089,0 23.8669,-1.2682 33.7732,-3.7821 10.087,-2.5221 19.0034,-5.7642 26.749,-9.7284 7.7455,-4.1422 14.4102,-8.8264 19.994,-14.0485 5.5838,-5.2242 10.3572,-10.6284 14.3199,-16.2127 l -24.8569,-30.2611 c -3.9627,4.8642 -8.1957,9.3664 -12.6989,13.5105 -4.5031,3.9622 -9.4565,7.4743 -14.8603,10.5364 -5.4038,2.8821 -11.348,5.1342 -17.8325,6.7543 -6.4844,1.6159 -13.7797,2.4321 -21.8848,2.4321 -22.1548,0 -39.1775,-7.1143 -51.0659,-21.3448 -11.70817,-14.2285 -17.56227,-37.0154 -17.56227,-68.3586 v -6.7542 h 163.19407 v -27.8291 c 0,-22.3348 -1.8912,-42.0595 -5.674,-59.1722 -3.7825,-17.1126 -9.8167,-31.5212 -18.1027,-43.2296 -8.2857,-11.7084 -18.9133,-20.5348 -31.8832,-26.479 -12.969,-6.1242 -28.639,-9.1863 -47.0137,-9.1863 z m 0,41.0695 c 10.4471,0 19.0933,1.8819 25.9389,5.6742 6.8447,3.7822 12.2485,9.0964 16.2114,15.9406 4.143,6.8443 7.1149,15.0406 8.9162,24.5869 1.9812,9.3664 3.2421,19.7227 3.7825,31.0712 v 6.4842 H 987.98393 c 0.7207,-16.3926 2.7019,-29.9911 5.9442,-40.7995 3.2424,-10.8085 7.47527,-19.3648 12.69887,-25.667 5.4038,-6.4842 11.6181,-10.9884 18.6431,-13.5085 7.0249,-2.5221 14.6802,-3.7841 22.9669,-3.7841 z"
     style="fill:#a6a6a6;stroke-width:20.45499992"
     id="path8"
     inkscape:connector-curvature="0"
     inkscape:export-xdpi="1.8624142"
     inkscape:export-ydpi="1.8624142" />
</svg>
