<svg xmlns="http://www.w3.org/2000/svg" xmlns:xlink="http://www.w3.org/1999/xlink" width="79" height="79" viewBox="0 0 79 79">
  <defs>
    <filter id="Ellipse_385" x="0" y="0" width="79" height="79" filterUnits="userSpaceOnUse">
      <feOffset dx="2" dy="2" input="SourceAlpha"/>
      <feGaussianBlur stdDeviation="3" result="blur"/>
      <feFlood flood-opacity="0.161"/>
      <feComposite operator="in" in2="blur"/>
      <feComposite in="SourceGraphic"/>
    </filter>
  </defs>
  <g id="Group_11632" data-name="Group 11632" transform="translate(-923.5 -828)">
    <g transform="matrix(1, 0, 0, 1, 923.5, 828)" filter="url(#Ellipse_385)">
      <circle id="Ellipse_385-2" data-name="Ellipse 385" cx="30.5" cy="30.5" r="30.5" transform="translate(7 7)" fill="#fff"/>
    </g>
    <g id="Group_11611" data-name="Group 11611" transform="translate(147.764 129.555)">
      <path id="Path_23609" data-name="Path 23609" d="M360.678,354.435c-.624-.415-1.249-.879-1.85-1.329-2.423-1.8-5.17-3.841-7.355-1.656a2.6,2.6,0,0,1-2.77.914c-.392-.329-2.022-1.719-3.706-3.377-2.139-2.119-2.349-3.068-1.126-5.072,1.982-3.242,1.146-4.445-1.647-8.429l-.123-.175c-1.452-2.074-2.626-3.025-3.93-3.185-1.538-.183-2.933.831-4.1,1.847-2.864,2.5-3.491,6.588-1.644,10.643a37.684,37.684,0,0,0,12.811,15.217c3.858,2.578,7.054,4.23,9.982,4.23a8.068,8.068,0,0,0,5.556-2.354,4.933,4.933,0,0,0,1.965-4.01A4.771,4.771,0,0,0,360.678,354.435Zm-1.048,5.995c-3.311,3-6.7,2.492-13.424-2.028A35.89,35.89,0,0,1,334,343.9c-1.544-3.394-1.091-6.625,1.212-8.638a4.5,4.5,0,0,1,2.595-1.432,1.449,1.449,0,0,1,.16,0c.75.092,1.618.874,2.732,2.463l.123.178c2.758,3.941,2.984,4.262,1.587,6.545-1.862,3.047-.951,4.869,1.383,7.189,1.985,1.965,3.835,3.494,3.912,3.56a.7.7,0,0,0,.158.1c.1.052,2.429,1.2,4.829-1.2,1.025-1.025,2.412-.189,5.115,1.822.622.461,1.263.939,1.925,1.381h0a3.037,3.037,0,0,1,1.3,1.973A3.315,3.315,0,0,1,359.629,360.43Z" transform="translate(464.67 387.359)"/>
      <path id="Path_23610" data-name="Path 23610" d="M397.421,360.361h1.719A10.162,10.162,0,0,0,389,350.21v1.719A8.443,8.443,0,0,1,397.421,360.361Z" transform="translate(423.556 374.44)" fill="#54d4f2"/>
      <path id="Path_23611" data-name="Path 23611" d="M402.175,348.544h1.719A14.922,14.922,0,0,0,389,333.65v1.719A13.2,13.2,0,0,1,402.175,348.544Z" transform="translate(423.556 386.257)" fill="#54d4f2"/>
    </g>
  </g>
</svg>
