<svg xmlns="http://www.w3.org/2000/svg" xmlns:xlink="http://www.w3.org/1999/xlink" width="79" height="79" viewBox="0 0 79 79">
  <defs>
    <filter id="Ellipse_386" x="0" y="0" width="79" height="79" filterUnits="userSpaceOnUse">
      <feOffset dx="2" dy="2" input="SourceAlpha"/>
      <feGaussianBlur stdDeviation="3" result="blur"/>
      <feFlood flood-opacity="0.161"/>
      <feComposite operator="in" in2="blur"/>
      <feComposite in="SourceGraphic"/>
    </filter>
  </defs>
  <g id="Group_11634" data-name="Group 11634" transform="translate(-1178 -828)">
    <g transform="matrix(1, 0, 0, 1, 1178, 828)" filter="url(#Ellipse_386)">
      <circle id="Ellipse_386-2" data-name="Ellipse 386" cx="30.5" cy="30.5" r="30.5" transform="translate(7 7)" fill="#fff"/>
    </g>
    <g id="Group_11612" data-name="Group 11612">
      <circle id="Ellipse_398" data-name="Ellipse 398" cx="2" cy="2" r="2" transform="translate(1205 860)" fill="#54d4f2"/>
      <circle id="Ellipse_399" data-name="Ellipse 399" cx="2" cy="2" r="2" transform="translate(1214 860)" fill="#54d4f2"/>
      <circle id="Ellipse_400" data-name="Ellipse 400" cx="2" cy="2" r="2" transform="translate(1222 860)" fill="#54d4f2"/>
      <g id="Layer_3" data-name="Layer 3" transform="translate(642.013 512.26)">
        <path id="Path_23613" data-name="Path 23613" d="M586.877,336.71h-27.1a4.657,4.657,0,0,0-4.651,4.651v16.153a4.657,4.657,0,0,0,4.651,4.651h10.254l11.628,7.426a.964.964,0,0,0,.509.148.925.925,0,0,0,.452-.116.943.943,0,0,0,.49-.827v-6.631h3.771a4.654,4.654,0,0,0,4.648-4.651V341.361A4.654,4.654,0,0,0,586.877,336.71Zm2.762,20.8a2.766,2.766,0,0,1-2.762,2.766h-4.714a.943.943,0,0,0-.943.943v5.855l-10.405-6.65a.942.942,0,0,0-.506-.148H559.781a2.769,2.769,0,0,1-2.766-2.766V341.361a2.769,2.769,0,0,1,2.766-2.765h27.1a2.765,2.765,0,0,1,2.762,2.765Z" transform="translate(0 0)"/>
        <path id="Path_23614" data-name="Path 23614" d="M606.588,369.05a2.938,2.938,0,1,0,2.938,2.938A2.938,2.938,0,0,0,606.588,369.05Zm0,3.991a1.053,1.053,0,1,1,1.053-1.053A1.053,1.053,0,0,1,606.588,373.041Z" transform="translate(-33.272 -22.177)" fill="#54d4f2"/>
        <path id="Path_23615" data-name="Path 23615" d="M580.128,369.05a2.938,2.938,0,1,0,2.938,2.938A2.938,2.938,0,0,0,580.128,369.05Zm0,3.991a1.053,1.053,0,1,1,1.053-1.053A1.053,1.053,0,0,1,580.128,373.041Z" transform="translate(-15.127 -22.177)" fill="#54d4f2"/>
        <path id="Path_23616" data-name="Path 23616" d="M633.048,369.05a2.938,2.938,0,1,0,2.938,2.938A2.938,2.938,0,0,0,633.048,369.05Zm0,3.991a1.053,1.053,0,1,1,1.053-1.053A1.053,1.053,0,0,1,633.048,373.041Z" transform="translate(-51.417 -22.177)" fill="#54d4f2"/>
      </g>
    </g>
  </g>
</svg>
