<svg xmlns="http://www.w3.org/2000/svg" width="3367.218" height="562.801" viewBox="0 0 3367.218 562.801">
  <g id="amber_connect_horizontal_with_tag_line" data-name="amber connect horizontal with tag line" transform="translate(-1008.4 -1810.7)">
    <g id="Group_11638" data-name="Group 11638" transform="translate(1575.69 1949.419)">
      <g id="Group_11637" data-name="Group 11637" transform="translate(0 0)">
        <path id="Path_23630" data-name="Path 23630" d="M2273.8,2066.875v229H2220.21V2264.95q-10.807,17.208-30.7,27.045-19.868,9.81-40.069,9.81-26.02,0-47.662-9.588a111.109,111.109,0,0,1-37.077-26.27,123.017,123.017,0,0,1-32.7-84.572,124.816,124.816,0,0,1,8.59-45.944,120.632,120.632,0,0,1,24.108-38.573,111.108,111.108,0,0,1,37.077-26.27q21.614-9.56,47.662-9.588,20.118,0,40.069,9.81,19.868,9.81,30.7,27.046v-30.98ZM2152.43,2254.143a64.427,64.427,0,0,0,27.766-5.875,66.2,66.2,0,0,0,21.393-15.74,70.911,70.911,0,0,0,13.744-23.11,81.872,81.872,0,0,0,0-55.976,71.494,71.494,0,0,0-13.744-23.11,66.411,66.411,0,0,0-21.393-15.74,64.427,64.427,0,0,0-27.766-5.875,62.917,62.917,0,0,0-27.544,5.875,66.7,66.7,0,0,0-34.638,38.85,86.456,86.456,0,0,0,0,55.976,66.7,66.7,0,0,0,34.638,38.85A63.707,63.707,0,0,0,2152.43,2254.143Z" transform="translate(-2032 -2061)" fill="#ef6000"/>
      </g>
    </g>
    <g id="Group_11640" data-name="Group 11640" transform="translate(1826.359 1949.53)">
      <g id="Group_11639" data-name="Group 11639">
        <path id="Path_23631" data-name="Path 23631" d="M2773.376,2296.019V2167.775q0-27.517-10.086-43.506-10.059-15.961-32.7-15.961a50.745,50.745,0,0,0-18.9,3.436,36.913,36.913,0,0,0-15.241,11.8c-4.434,5.6-7.87,12.858-10.309,21.891s-3.713,20.4-3.713,34.139v116.5h-53.592V2167.332q0-27.517-9.588-43.229-9.56-15.712-32.2-15.74a53.08,53.08,0,0,0-19.176,3.436,36.158,36.158,0,0,0-15.462,11.8c-4.434,5.6-7.925,12.858-10.585,21.891q-3.907,13.551-3.935,34.139v116.5H2484.3v-229h53.592v31.923q7.4-15.712,24.33-26.769,16.958-11.056,39.57-11.084,31.424,0,48.161,11.8,16.709,11.8,24.108,28.985,8.313-17.208,27.046-28.985,18.7-11.8,43.228-11.8c17.014,0,30.98,2.716,41.788,8.092,10.807,5.431,19.231,12.359,25.327,20.894a75.044,75.044,0,0,1,12.3,28.763,165.662,165.662,0,0,1,3.214,32.2V2296.13h-53.592Z" transform="translate(-2484.3 -2061.2)" fill="#ef6000"/>
      </g>
    </g>
    <g id="Group_11642" data-name="Group 11642" transform="translate(2174.57 1840.295)">
      <g id="Group_11641" data-name="Group 11641" transform="translate(0)">
        <path id="Path_23632" data-name="Path 23632" d="M3331.514,2093.6a150.819,150.819,0,0,1,7.925-49.436c.665-2,1.441-3.99,2.217-5.93a122.8,122.8,0,0,0-19.9-29.152,110.78,110.78,0,0,0-37.132-26.27q-21.615-9.56-47.662-9.588-20.118,0-40.069,9.81-19.868,9.81-30.7,27.045V1864.1H3112.6v344h53.592v-30.925q10.807,17.208,30.7,27.045,19.868,9.809,40.069,9.81,26.02,0,47.662-9.588a111.9,111.9,0,0,0,37.132-26.27,120.09,120.09,0,0,0,19.73-28.6c-.887-2.328-1.718-4.655-2.494-7.094A156.449,156.449,0,0,1,3331.514,2093.6Zm-35.359,28.043a66.77,66.77,0,0,1-13.522,23.111,67.731,67.731,0,0,1-21.116,15.74,62.745,62.745,0,0,1-27.544,5.875,65.044,65.044,0,0,1-49.657-21.614,67.642,67.642,0,0,1-13.523-23.111,86.459,86.459,0,0,1,0-55.975,67.284,67.284,0,0,1,13.523-23.111,66.408,66.408,0,0,1,21.393-15.74,65.624,65.624,0,0,1,28.265-5.875,63.707,63.707,0,0,1,27.544,5.875,66.7,66.7,0,0,1,34.638,38.85,86.459,86.459,0,0,1,0,55.975Z" transform="translate(-3112.601 -1864.1)" fill="#ef6000"/>
      </g>
    </g>
    <g id="Group_11644" data-name="Group 11644" transform="translate(2398.915 1949.419)">
      <g id="Group_11643" data-name="Group 11643">
        <path id="Path_23633" data-name="Path 23633" d="M3570.549,2197.613a101.673,101.673,0,0,0,4.434,23.111,51.515,51.515,0,0,0,10.586,18.9,48.943,48.943,0,0,0,18.455,12.8c7.537,3.1,16.848,4.656,27.988,4.656q23.11,0,33.419-8.867a53.577,53.577,0,0,0,15.241-21.115h54.036a80.577,80.577,0,0,1-10.585,28.265,86.183,86.183,0,0,1-21.393,23.831,107.886,107.886,0,0,1-30.98,16.46q-17.707,6.152-39.792,6.152-29.013,0-50.378-9.311a100.032,100.032,0,0,1-35.636-25.549,106.845,106.845,0,0,1-21.393-38.352,152.486,152.486,0,0,1-7.149-47.163,146.386,146.386,0,0,1,7.593-47.662,113.1,113.1,0,0,1,21.891-38.351,98.082,98.082,0,0,1,35.359-25.328q21.115-9.061,48.161-9.089a108.931,108.931,0,0,1,41.51,7.87,105.656,105.656,0,0,1,33.918,21.892,100.088,100.088,0,0,1,30.7,73.488c0,3.935-.111,8.59-.222,14.021a137.659,137.659,0,0,1-2.217,19.4H3570.549Zm58.469-96.322c-16.682,0-30.648,4.766-41.787,14.243q-16.709,14.3-16.682,42.286h114q0-26.519-15.462-41.51Q3653.542,2101.263,3629.018,2101.291Z" transform="translate(-3517.4 -2061)" fill="#ef6000"/>
      </g>
    </g>
    <g id="Group_11646" data-name="Group 11646" transform="translate(2627.416 1952.301)">
      <g id="Group_11645" data-name="Group 11645" transform="translate(0)">
        <path id="Path_23634" data-name="Path 23634" d="M4075.236,2118.85a85.084,85.084,0,0,0-10.585-1.94,92.04,92.04,0,0,0-10.585-.5q-34.417,0-52.594,19.9-18.206,19.868-18.178,63.125v98.76H3929.7v-229h53.592v36.855a57.139,57.139,0,0,1,11.084-14.964,83.557,83.557,0,0,1,16.682-12.8,90.1,90.1,0,0,1,20.616-8.868,80.9,80.9,0,0,1,22.335-3.214c8.535,0,15.573,1.164,21.115,3.436v49.214Z" transform="translate(-3929.7 -2066.2)" fill="#ef6000"/>
      </g>
    </g>
    <g id="Group_11647" data-name="Group 11647" transform="translate(3094.892 2255.51)">
      <path id="Path_23635" data-name="Path 23635" d="M4842.643,2673.155a19.515,19.515,0,0,1-3.215,6.207,23.4,23.4,0,0,1-5.209,4.988,25.475,25.475,0,0,1-6.484,3.27,21.565,21.565,0,0,1-6.873,1.164,34.988,34.988,0,0,1-13.19-2.383,27.3,27.3,0,0,1-9.533-6.54,28.566,28.566,0,0,1-5.875-9.643,34.218,34.218,0,0,1-2.051-11.749,32.6,32.6,0,0,1,2-11.306,30.233,30.233,0,0,1,5.653-9.588,27.238,27.238,0,0,1,9.145-6.651,29.557,29.557,0,0,1,12.414-2.494,26.179,26.179,0,0,1,9.033,1.5,23.828,23.828,0,0,1,7.094,3.99,22.023,22.023,0,0,1,4.988,6.041,22.667,22.667,0,0,1,2.66,7.537l.222,1.164h17.4l-.222-1.607a39.56,39.56,0,0,0-4.212-13.19,34.239,34.239,0,0,0-8.646-10.7,41.832,41.832,0,0,0-12.968-7.2,51.542,51.542,0,0,0-17.181-2.66,44,44,0,0,0-18.511,3.769,42.825,42.825,0,0,0-13.966,10.086,43.54,43.54,0,0,0-8.868,14.465,47.3,47.3,0,0,0-3.048,16.9,48.126,48.126,0,0,0,3.159,17.347,44.108,44.108,0,0,0,9.089,14.465,44.675,44.675,0,0,0,14.41,9.976,48.1,48.1,0,0,0,19.175,3.713,48.883,48.883,0,0,0,14.964-2.272,40.408,40.408,0,0,0,21.393-15.906,36.156,36.156,0,0,0,5.154-11.8l.388-1.718h-18.012Z" transform="translate(-4773.199 -2613.3)" fill="#ef6000"/>
      <path id="Path_23636" data-name="Path 23636" d="M4989.848,2674.044a29.376,29.376,0,0,0-9.865-6.706,32.944,32.944,0,0,0-12.8-2.438,32.469,32.469,0,0,0-12.747,2.438,28.9,28.9,0,0,0-9.754,6.706,29.619,29.619,0,0,0-6.263,9.865,31.113,31.113,0,0,0-2.217,11.694,30.828,30.828,0,0,0,8.479,21.5,29.461,29.461,0,0,0,9.754,6.706,32.465,32.465,0,0,0,12.747,2.438,32.939,32.939,0,0,0,12.8-2.438,29.579,29.579,0,0,0,16.183-16.515,31.256,31.256,0,0,0-6.318-33.253Zm-22.723,37.908a14.524,14.524,0,0,1-6.152-1.275,15.821,15.821,0,0,1-4.766-3.491,15.484,15.484,0,0,1-3.048-5.154,19.811,19.811,0,0,1,0-12.747,14.8,14.8,0,0,1,7.814-8.646,13.893,13.893,0,0,1,6.152-1.275,14.585,14.585,0,0,1,6.263,1.33,15.406,15.406,0,0,1,4.821,3.492,15.626,15.626,0,0,1,3.1,5.154,18.561,18.561,0,0,1,0,12.636,15.076,15.076,0,0,1-3.1,5.154,15.4,15.4,0,0,1-4.821,3.491A14.578,14.578,0,0,1,4967.125,2711.953Z" transform="translate(-4845.863 -2636.303)" fill="#ef6000"/>
      <path id="Path_23637" data-name="Path 23637" d="M5105.388,2673.047a18.829,18.829,0,0,0-7.094-5.986,24.9,24.9,0,0,0-10.918-2.161,25.878,25.878,0,0,0-11.639,2.494,18.2,18.2,0,0,0-5.376,3.935v-4.988H5054.4v58.58h15.961v-30.26a19.5,19.5,0,0,1,3.1-11.25c1.94-2.882,4.933-4.267,9.089-4.267a10.5,10.5,0,0,1,5.21,1.164,9.1,9.1,0,0,1,3.27,3.048,14.442,14.442,0,0,1,1.829,4.877,33.9,33.9,0,0,1,.554,6.429v30.26h15.961v-34.527a49.6,49.6,0,0,0-.832-9.865A22.572,22.572,0,0,0,5105.388,2673.047Z" transform="translate(-4898.556 -2636.303)" fill="#ef6000"/>
      <path id="Path_23638" data-name="Path 23638" d="M5212.287,2673.047a18.821,18.821,0,0,0-7.094-5.986,24.9,24.9,0,0,0-10.918-2.161,25.877,25.877,0,0,0-11.638,2.494,18.211,18.211,0,0,0-5.376,3.935v-4.988H5161.3v58.58h15.961v-30.26a19.506,19.506,0,0,1,3.1-11.25c1.94-2.882,4.932-4.267,9.089-4.267a10.5,10.5,0,0,1,5.209,1.164,9.1,9.1,0,0,1,3.27,3.048,14.432,14.432,0,0,1,1.829,4.877,33.859,33.859,0,0,1,.555,6.429v30.26h15.961v-34.527a49.68,49.68,0,0,0-.831-9.865A21.464,21.464,0,0,0,5212.287,2673.047Z" transform="translate(-4946.21 -2636.303)" fill="#ef6000"/>
      <path id="Path_23639" data-name="Path 23639" d="M5315.671,2672.593a26.884,26.884,0,0,0-8.812-5.6,28.752,28.752,0,0,0-10.751-2,31.578,31.578,0,0,0-12.415,2.328,25.292,25.292,0,0,0-9.2,6.54,29.557,29.557,0,0,0-5.653,9.81,37.066,37.066,0,0,0-1.939,12.082,38.046,38.046,0,0,0,1.829,11.916,27.54,27.54,0,0,0,5.542,9.81,26.308,26.308,0,0,0,9.255,6.6,32.251,32.251,0,0,0,12.969,2.383,32.912,32.912,0,0,0,10.253-1.552,28.383,28.383,0,0,0,8.036-4.212,21.941,21.941,0,0,0,5.6-6.207,21.706,21.706,0,0,0,2.771-7.371l.277-1.607h-15.851l-.333.887a11.427,11.427,0,0,1-3.381,4.6q-2.161,1.829-7.316,1.829a16.3,16.3,0,0,1-6.373-1.053,10.736,10.736,0,0,1-4.046-2.771,11.14,11.14,0,0,1-2.328-4.1,27.462,27.462,0,0,1-.887-3.824h39.9l.222-1.164a37.156,37.156,0,0,0,.555-4.932c.055-1.386.055-2.494.055-3.436a25.994,25.994,0,0,0-2.106-10.474A25.3,25.3,0,0,0,5315.671,2672.593Zm-32.81,15.961a10.857,10.857,0,0,1,3.547-7.87,14.086,14.086,0,0,1,9.366-3.159,12.007,12.007,0,0,1,8.867,3.27,11.268,11.268,0,0,1,3.326,7.7h-25.106Z" transform="translate(-4993.286 -2636.347)" fill="#ef6000"/>
      <path id="Path_23640" data-name="Path 23640" d="M5417.432,2704.005a13.42,13.42,0,0,1-3.658,5.986c-1.552,1.385-4.1,2.051-7.593,2.051a15.987,15.987,0,0,1-6.65-1.275,13.449,13.449,0,0,1-4.489-3.436,14.143,14.143,0,0,1-2.605-5.154,24.659,24.659,0,0,1-.831-6.429,23.64,23.64,0,0,1,.831-6.373,15.08,15.08,0,0,1,2.605-5.154,12.348,12.348,0,0,1,4.268-3.492,13.328,13.328,0,0,1,6.041-1.275c4.1,0,7.094.832,8.756,2.438a10.616,10.616,0,0,1,3.159,6.54l.166,1.219h15.906l-.111-1.5a28.152,28.152,0,0,0-2.105-8.369,21.883,21.883,0,0,0-5.154-7.426,26.206,26.206,0,0,0-8.535-5.265,34.08,34.08,0,0,0-12.3-2,29.66,29.66,0,0,0-12.691,2.6,28.619,28.619,0,0,0-9.2,6.872,29.032,29.032,0,0,0-5.653,9.865,35.706,35.706,0,0,0,0,22.889,29.307,29.307,0,0,0,5.653,9.81,27.921,27.921,0,0,0,9.311,6.872,29.92,29.92,0,0,0,12.747,2.6,36.484,36.484,0,0,0,11.25-1.607,26.191,26.191,0,0,0,8.424-4.6,23.4,23.4,0,0,0,5.6-6.983,29.865,29.865,0,0,0,2.771-8.479l.277-1.607h-15.851Z" transform="translate(-5041.788 -2636.392)" fill="#ef6000"/>
      <path id="Path_23641" data-name="Path 23641" d="M5519.513,2698.573h-3.6a12.989,12.989,0,0,1-3.1-.333,3.807,3.807,0,0,1-1.939-1.108,5.682,5.682,0,0,1-1.274-2.66,22.92,22.92,0,0,1-.5-5.376v-21.5h12.913V2653.9h-12.913V2637h-15.961v16.9H5483.6v13.689h9.532V2692.2c0,4.988.665,8.757,2.051,11.639a16.263,16.263,0,0,0,5.265,6.429,14.907,14.907,0,0,0,6.6,2.55,46.633,46.633,0,0,0,5.764.443c1.939,0,3.879-.055,5.708-.222s3.214-.333,4.322-.5l1.164-.166v-14.687l-1.884.72A24.313,24.313,0,0,1,5519.513,2698.573Z" transform="translate(-5089.889 -2623.865)" fill="#ef6000"/>
      <path id="Path_23642" data-name="Path 23642" d="M5574.685,2734.4a10.843,10.843,0,0,0-7.814,3.214,10.972,10.972,0,0,0,0,15.629,10.843,10.843,0,0,0,7.814,3.214,11,11,0,0,0,7.925-3.214,10.972,10.972,0,0,0,0-15.629A11,11,0,0,0,5574.685,2734.4Z" transform="translate(-5125.551 -2667.285)" fill="#ef6000"/>
      <path id="Path_23643" data-name="Path 23643" d="M5723.193,2630.467a43.665,43.665,0,0,0-14.244-9.754,47.991,47.991,0,0,0-19.231-3.713H5660.9v86.568h28.819a47.993,47.993,0,0,0,19.231-3.713,44.532,44.532,0,0,0,14.244-9.754,41.552,41.552,0,0,0,8.812-13.855,44.061,44.061,0,0,0,0-31.923A41.863,41.863,0,0,0,5723.193,2630.467Zm-33.475,57.97h-12.137v-56.363h12.137a29.847,29.847,0,0,1,12.026,2.383,27.406,27.406,0,0,1,8.867,6.318,27.825,27.825,0,0,1,5.487,9.034,29.639,29.639,0,0,1,1.884,10.474,30.94,30.94,0,0,1-1.884,10.475,28.417,28.417,0,0,1-5.487,9.034,26.812,26.812,0,0,1-8.867,6.318A29.834,29.834,0,0,1,5689.719,2688.438Z" transform="translate(-5168.926 -2614.949)" fill="#ef6000"/>
      <path id="Path_23644" data-name="Path 23644" d="M5849.07,2672.593a26.872,26.872,0,0,0-8.812-5.6,28.751,28.751,0,0,0-10.752-2,31.577,31.577,0,0,0-12.414,2.328,25.289,25.289,0,0,0-9.2,6.54,29.564,29.564,0,0,0-5.653,9.81,37.053,37.053,0,0,0-1.94,12.082,38.046,38.046,0,0,0,1.829,11.916,27.54,27.54,0,0,0,5.542,9.81,26.308,26.308,0,0,0,9.255,6.6,32.249,32.249,0,0,0,12.968,2.383,32.91,32.91,0,0,0,10.253-1.552,28.369,28.369,0,0,0,8.036-4.212,21.936,21.936,0,0,0,5.6-6.207,21.707,21.707,0,0,0,2.771-7.371l.277-1.607h-15.851l-.333.887a11.436,11.436,0,0,1-3.381,4.6q-2.161,1.829-7.315,1.829a16.3,16.3,0,0,1-6.374-1.053,10.73,10.73,0,0,1-4.045-2.771,11.134,11.134,0,0,1-2.328-4.1,27.532,27.532,0,0,1-.887-3.824h39.9l.222-1.164a37.219,37.219,0,0,0,.554-4.932c.056-1.386.056-2.494.056-3.436a26,26,0,0,0-2.105-10.474A25.313,25.313,0,0,0,5849.07,2672.593Zm-32.864,15.961a10.855,10.855,0,0,1,3.547-7.87,14.086,14.086,0,0,1,9.366-3.159,12.008,12.008,0,0,1,8.867,3.27,11.27,11.27,0,0,1,3.325,7.7h-25.105Z" transform="translate(-5231.07 -2636.347)" fill="#ef6000"/>
      <path id="Path_23645" data-name="Path 23645" d="M5941.613,2698.573h-3.6a12.979,12.979,0,0,1-3.1-.333,3.806,3.806,0,0,1-1.94-1.108,5.678,5.678,0,0,1-1.274-2.66,22.95,22.95,0,0,1-.5-5.376v-21.5h12.913V2653.9h-12.913V2637h-15.961v16.9H5905.7v13.689h9.533V2692.2c0,4.988.665,8.757,2.051,11.639a16.252,16.252,0,0,0,5.265,6.429,14.908,14.908,0,0,0,6.595,2.55,46.633,46.633,0,0,0,5.764.443c1.94,0,3.88-.055,5.708-.222s3.214-.333,4.323-.5l1.164-.166v-14.687l-1.885.72A24.271,24.271,0,0,1,5941.613,2698.573Z" transform="translate(-5278.056 -2623.865)" fill="#ef6000"/>
      <path id="Path_23646" data-name="Path 23646" d="M6027.871,2672.593a26.884,26.884,0,0,0-8.812-5.6,28.752,28.752,0,0,0-10.751-2,31.578,31.578,0,0,0-12.415,2.328,25.292,25.292,0,0,0-9.2,6.54,29.557,29.557,0,0,0-5.653,9.81,37.066,37.066,0,0,0-1.939,12.082,38.046,38.046,0,0,0,1.829,11.916,27.54,27.54,0,0,0,5.542,9.81,26.308,26.308,0,0,0,9.255,6.6,32.251,32.251,0,0,0,12.969,2.383,32.912,32.912,0,0,0,10.253-1.552,28.383,28.383,0,0,0,8.036-4.212,21.941,21.941,0,0,0,5.6-6.207,21.706,21.706,0,0,0,2.771-7.371l.277-1.607h-15.851l-.333.887a11.427,11.427,0,0,1-3.381,4.6q-2.161,1.829-7.316,1.829a16.3,16.3,0,0,1-6.373-1.053,10.736,10.736,0,0,1-4.046-2.771,11.14,11.14,0,0,1-2.328-4.1,27.462,27.462,0,0,1-.887-3.824h39.9l.222-1.164a37.156,37.156,0,0,0,.555-4.932c.055-1.386.055-2.494.055-3.436a25.994,25.994,0,0,0-2.106-10.474A25.3,25.3,0,0,0,6027.871,2672.593Zm-32.865,15.961a10.857,10.857,0,0,1,3.547-7.87,14.086,14.086,0,0,1,9.366-3.159,12.007,12.007,0,0,1,8.867,3.27,11.268,11.268,0,0,1,3.325,7.7h-25.105Z" transform="translate(-5310.777 -2636.347)" fill="#ef6000"/>
      <path id="Path_23647" data-name="Path 23647" d="M6129.632,2704.005a13.42,13.42,0,0,1-3.658,5.986c-1.552,1.385-4.1,2.051-7.593,2.051a15.987,15.987,0,0,1-6.65-1.275,13.449,13.449,0,0,1-4.489-3.436,14.143,14.143,0,0,1-2.605-5.154,24.659,24.659,0,0,1-.831-6.429,23.64,23.64,0,0,1,.831-6.373,15.08,15.08,0,0,1,2.605-5.154,12.348,12.348,0,0,1,4.268-3.492,13.328,13.328,0,0,1,6.041-1.275c4.1,0,7.094.832,8.756,2.438a10.616,10.616,0,0,1,3.159,6.54l.166,1.219h15.906l-.111-1.5a28.152,28.152,0,0,0-2.105-8.369,21.883,21.883,0,0,0-5.154-7.426,26.206,26.206,0,0,0-8.535-5.265,34.08,34.08,0,0,0-12.3-2,29.657,29.657,0,0,0-12.691,2.6,28.616,28.616,0,0,0-9.2,6.872,29.032,29.032,0,0,0-5.653,9.865,35.706,35.706,0,0,0,0,22.889,29.307,29.307,0,0,0,5.653,9.81,27.921,27.921,0,0,0,9.311,6.872,29.92,29.92,0,0,0,12.747,2.6,36.484,36.484,0,0,0,11.25-1.607,26.191,26.191,0,0,0,8.424-4.6,23.4,23.4,0,0,0,5.6-6.983,29.865,29.865,0,0,0,2.771-8.479l.277-1.607h-15.851Z" transform="translate(-5359.279 -2636.392)" fill="#ef6000"/>
      <path id="Path_23648" data-name="Path 23648" d="M6228.713,2698.573h-3.6a12.979,12.979,0,0,1-3.1-.333,3.8,3.8,0,0,1-1.939-1.108,5.673,5.673,0,0,1-1.275-2.66,22.95,22.95,0,0,1-.5-5.376v-21.5h12.913V2653.9h-12.913V2637h-15.961v16.9H6192.8v13.689h9.533V2692.2c0,4.988.665,8.757,2.05,11.639a16.257,16.257,0,0,0,5.266,6.429,14.9,14.9,0,0,0,6.595,2.55,46.626,46.626,0,0,0,5.764.443c1.939,0,3.88-.055,5.708-.222s3.215-.333,4.323-.5l1.164-.166v-14.687l-1.885.72A24.259,24.259,0,0,1,6228.713,2698.573Z" transform="translate(-5406.042 -2623.865)" fill="#ef6000"/>
      <path id="Path_23649" data-name="Path 23649" d="M6284.884,2734.4a10.845,10.845,0,0,0-7.814,3.214,10.973,10.973,0,0,0,0,15.629,10.845,10.845,0,0,0,7.814,3.214,11.006,11.006,0,0,0,7.925-3.214,10.972,10.972,0,0,0,0-15.629A11,11,0,0,0,6284.884,2734.4Z" transform="translate(-5442.151 -2667.285)" fill="#ef6000"/>
      <path id="Path_23650" data-name="Path 23650" d="M7052.685,2734.4a10.844,10.844,0,0,0-7.814,3.214,10.973,10.973,0,0,0,0,15.629,10.844,10.844,0,0,0,7.814,3.214,11,11,0,0,0,7.925-3.214,10.972,10.972,0,0,0,0-15.629A11,11,0,0,0,7052.685,2734.4Z" transform="translate(-5784.429 -2667.285)" fill="#ef6000"/>
      <path id="Path_23651" data-name="Path 23651" d="M6423.479,2626.145a29.366,29.366,0,0,0-9.865-6.706,32.946,32.946,0,0,0-12.8-2.438H6369v86.568h16.682v-25.161h15.075a32.944,32.944,0,0,0,12.8-2.438,29.578,29.578,0,0,0,16.183-16.516,32.091,32.091,0,0,0,0-23.443A29.626,29.626,0,0,0,6423.479,2626.145Zm-22.723,37.132h-15.075v-31.2h15.075a13.944,13.944,0,0,1,5.985,1.274,13.189,13.189,0,0,1,4.544,3.381,16.408,16.408,0,0,1,2.938,4.933,17.858,17.858,0,0,1,0,12.082,16.182,16.182,0,0,1-2.937,4.932,13.529,13.529,0,0,1-10.53,4.6Z" transform="translate(-5484.59 -2614.949)" fill="#ef6000"/>
      <path id="Path_23652" data-name="Path 23652" d="M6521.823,2666.2a21.185,21.185,0,0,0-5.875.831,24.464,24.464,0,0,0-5.376,2.272,22.707,22.707,0,0,0-4.378,3.325,2.418,2.418,0,0,0-.333.388v-6.1H6489.9v58.58h15.961v-25.438c0-6.651,1.386-11.472,4.1-14.465,2.715-2.937,6.706-4.378,11.916-4.378,1,0,1.773.055,2.438.111a19.371,19.371,0,0,1,2.438.443l1.718.388V2667.53l-.887-.333A14.719,14.719,0,0,0,6521.823,2666.2Z" transform="translate(-5538.486 -2636.882)" fill="#ef6000"/>
      <path id="Path_23653" data-name="Path 23653" d="M6613.147,2674.044a29.369,29.369,0,0,0-9.864-6.706,32.948,32.948,0,0,0-12.8-2.438,32.469,32.469,0,0,0-12.747,2.438,28.908,28.908,0,0,0-9.754,6.706,29.634,29.634,0,0,0-6.263,9.865,31.113,31.113,0,0,0-2.217,11.694,30.828,30.828,0,0,0,8.479,21.5,29.466,29.466,0,0,0,9.754,6.706,32.465,32.465,0,0,0,12.747,2.438,32.944,32.944,0,0,0,12.8-2.438,29.583,29.583,0,0,0,16.183-16.515,32.1,32.1,0,0,0,0-23.443A29.226,29.226,0,0,0,6613.147,2674.044Zm-22.667,37.908a14.52,14.52,0,0,1-6.151-1.275,15.817,15.817,0,0,1-4.767-3.491,15.484,15.484,0,0,1-3.048-5.154,19.811,19.811,0,0,1,0-12.747,14.8,14.8,0,0,1,7.814-8.646,13.889,13.889,0,0,1,6.151-1.275,14.583,14.583,0,0,1,6.263,1.33,15.4,15.4,0,0,1,4.821,3.492,15.626,15.626,0,0,1,3.1,5.154,18.561,18.561,0,0,1,0,12.636,15.076,15.076,0,0,1-3.1,5.154,15.392,15.392,0,0,1-4.821,3.491A14.576,14.576,0,0,1,6590.48,2711.953Z" transform="translate(-5569.513 -2636.303)" fill="#ef6000"/>
      <path id="Path_23654" data-name="Path 23654" d="M6706.213,2698.573h-3.6a12.982,12.982,0,0,1-3.1-.333,3.808,3.808,0,0,1-1.94-1.108,5.687,5.687,0,0,1-1.274-2.66,22.946,22.946,0,0,1-.5-5.376v-21.5h12.913V2653.9h-12.913V2637h-15.961v16.9H6670.3v13.689h9.532V2692.2c0,4.988.665,8.757,2.051,11.639a16.263,16.263,0,0,0,5.265,6.429,14.907,14.907,0,0,0,6.6,2.55,46.619,46.619,0,0,0,5.764.443c1.939,0,3.879-.055,5.708-.222s3.214-.333,4.323-.5l1.164-.166v-14.687l-1.884.72A25.753,25.753,0,0,1,6706.213,2698.573Z" transform="translate(-5618.907 -2623.865)" fill="#ef6000"/>
      <path id="Path_23655" data-name="Path 23655" d="M6793.371,2672.593a26.884,26.884,0,0,0-8.812-5.6,28.752,28.752,0,0,0-10.751-2,31.578,31.578,0,0,0-12.415,2.328,25.292,25.292,0,0,0-9.2,6.54,29.557,29.557,0,0,0-5.653,9.81,37.066,37.066,0,0,0-1.939,12.082,38.046,38.046,0,0,0,1.829,11.916,27.54,27.54,0,0,0,5.542,9.81,26.308,26.308,0,0,0,9.255,6.6,32.251,32.251,0,0,0,12.969,2.383,32.912,32.912,0,0,0,10.253-1.552,28.383,28.383,0,0,0,8.036-4.212,21.943,21.943,0,0,0,5.6-6.207,21.715,21.715,0,0,0,2.771-7.371l.277-1.607h-15.851l-.333.887a11.427,11.427,0,0,1-3.381,4.6q-2.161,1.829-7.316,1.829a16.3,16.3,0,0,1-6.373-1.053,10.736,10.736,0,0,1-4.046-2.771,11.14,11.14,0,0,1-2.328-4.1,27.462,27.462,0,0,1-.887-3.824h39.9l.222-1.164a37.156,37.156,0,0,0,.555-4.932c.056-1.386.056-2.494.056-3.436a25.994,25.994,0,0,0-2.106-10.474A24.529,24.529,0,0,0,6793.371,2672.593Zm-32.81,15.961a10.855,10.855,0,0,1,3.547-7.87,14.086,14.086,0,0,1,9.366-3.159,12.008,12.008,0,0,1,8.867,3.27,11.27,11.27,0,0,1,3.325,7.7h-25.105Z" transform="translate(-5652.029 -2636.347)" fill="#ef6000"/>
      <path id="Path_23656" data-name="Path 23656" d="M6895.232,2704.005a13.42,13.42,0,0,1-3.658,5.986c-1.552,1.385-4.1,2.051-7.593,2.051a15.989,15.989,0,0,1-6.65-1.275,13.453,13.453,0,0,1-4.489-3.436,14.135,14.135,0,0,1-2.6-5.154,24.638,24.638,0,0,1-.832-6.429,23.621,23.621,0,0,1,.832-6.373,15.07,15.07,0,0,1,2.6-5.154,12.353,12.353,0,0,1,4.268-3.492,13.33,13.33,0,0,1,6.041-1.275c4.1,0,7.094.832,8.756,2.438a10.616,10.616,0,0,1,3.159,6.54l.166,1.219h15.906l-.111-1.5a28.152,28.152,0,0,0-2.105-8.369,21.883,21.883,0,0,0-5.154-7.426,26.2,26.2,0,0,0-8.535-5.265,34.079,34.079,0,0,0-12.3-2,29.657,29.657,0,0,0-12.691,2.6,28.616,28.616,0,0,0-9.2,6.872,29.04,29.04,0,0,0-5.653,9.865,35.706,35.706,0,0,0,0,22.889,29.307,29.307,0,0,0,5.653,9.81,27.921,27.921,0,0,0,9.311,6.872,29.921,29.921,0,0,0,12.747,2.6,36.484,36.484,0,0,0,11.25-1.607,26.186,26.186,0,0,0,8.424-4.6,23.4,23.4,0,0,0,5.6-6.983,29.865,29.865,0,0,0,2.771-8.479l.277-1.607h-15.851Z" transform="translate(-5700.575 -2636.392)" fill="#ef6000"/>
      <path id="Path_23657" data-name="Path 23657" d="M6997.862,2698.3a7.717,7.717,0,0,1-2.55.277h-3.6a12.982,12.982,0,0,1-3.1-.333,3.806,3.806,0,0,1-1.94-1.108,5.682,5.682,0,0,1-1.274-2.66,22.92,22.92,0,0,1-.5-5.376v-21.5h12.913V2653.9h-12.913V2637h-15.961v16.9H6959.4v13.689h9.532V2692.2c0,4.988.665,8.757,2.051,11.639a16.263,16.263,0,0,0,5.265,6.429,14.907,14.907,0,0,0,6.6,2.55,46.633,46.633,0,0,0,5.764.443c1.939,0,3.879-.055,5.708-.222s3.214-.333,4.323-.5l1.164-.166v-14.687Z" transform="translate(-5747.785 -2623.865)" fill="#ef6000"/>
    </g>
    <g id="Group_11662" data-name="Group 11662" transform="translate(2823.495 1888.567)">
      <g id="Group_11649" data-name="Group 11649" transform="translate(0 55.366)">
        <g id="Group_11648" data-name="Group 11648">
          <path id="Path_23658" data-name="Path 23658" d="M4455.638,2141.271c-1.663-12.525-6.6-22.723-14.742-30.482q-12.3-11.639-40.292-11.638c-10.7,0-19.84,2-27.544,5.93a58.466,58.466,0,0,0-19.509,16.128,66.843,66.843,0,0,0-11.749,23.277,101.634,101.634,0,0,0-3.769,27.988,104.538,104.538,0,0,0,3.769,28.265,64.074,64.074,0,0,0,11.749,23.277,57.619,57.619,0,0,0,20.506,15.85c8.313,3.99,18.345,5.93,30.039,5.93q24.025,0,35.3-9.92,11.223-9.892,16.737-27.267h54.534a112.353,112.353,0,0,1-11.029,33.419,87.409,87.409,0,0,1-21.78,27.267,98.872,98.872,0,0,1-33.031,18.067q-19.287,6.4-44.78,6.429c-19.009,0-35.8-3.381-50.267-10.142a109.153,109.153,0,0,1-36.522-26.99,114.239,114.239,0,0,1-22.279-38.628,141.757,141.757,0,0,1,0-90.89,113.9,113.9,0,0,1,22.279-38.906,109.183,109.183,0,0,1,36.3-26.99q21.531-10.142,50.045-10.142c19.009,0,35.3,2.66,48.771,7.925,13.522,5.265,24.662,12.137,33.53,20.561a84.8,84.8,0,0,1,20.007,28.763,110.447,110.447,0,0,1,8.258,32.976h-54.534Z" transform="translate(-4283.5 -2051.101)" fill="#ef6000"/>
        </g>
      </g>
      <g id="Group_11651" data-name="Group 11651" transform="translate(232.658 55.476)">
        <g id="Group_11650" data-name="Group 11650">
          <path id="Path_23659" data-name="Path 23659" d="M4825.892,2293.989q-28.016,0-50.544-9.643a114.861,114.861,0,0,1-38.518-26.491,120.687,120.687,0,0,1-24.773-38.628,127.542,127.542,0,0,1,0-92.886,120.1,120.1,0,0,1,24.773-38.906,114.6,114.6,0,0,1,38.518-26.491q22.529-9.643,50.544-9.643c18.677,0,35.636,3.214,50.766,9.643a116.593,116.593,0,0,1,64.011,65.4,127.542,127.542,0,0,1,0,92.886,118.848,118.848,0,0,1-24.995,38.628,116.706,116.706,0,0,1-39.017,26.491Q4853.962,2293.989,4825.892,2293.989Zm0-48.05a66.349,66.349,0,0,0,28.265-5.93,68.342,68.342,0,0,0,21.78-15.851,71.363,71.363,0,0,0,14.021-23.277,82.579,82.579,0,0,0,0-56.53,70.422,70.422,0,0,0-14.021-23.277,66.922,66.922,0,0,0-21.78-15.851,65.71,65.71,0,0,0-28.265-5.93,65,65,0,0,0-28.043,5.93,67.265,67.265,0,0,0-35.248,39.127,84.073,84.073,0,0,0-4.766,28.265,82.712,82.712,0,0,0,4.766,28.265,67.266,67.266,0,0,0,35.248,39.127A65.167,65.167,0,0,0,4825.892,2245.939Z" transform="translate(-4703.3 -2051.3)" fill="#ef6000"/>
        </g>
      </g>
      <g id="Group_11653" data-name="Group 11653" transform="translate(486.375 58.358)">
        <g id="Group_11652" data-name="Group 11652">
          <path id="Path_23660" data-name="Path 23660" d="M5161.1,2062.43h54.535v32.2a71.168,71.168,0,0,1,30.537-28.486q19.535-9.643,45.556-9.643,25.522,0,42.785,8.424,17.292,8.4,27.268,22.778a81.44,81.44,0,0,1,11.749,28.763q3.242,15.878,3.27,39.626v137.222h-54.534V2173.882a146.181,146.181,0,0,0-2.494-27.766,64.628,64.628,0,0,0-8.258-22.058A42.8,42.8,0,0,0,5296,2109.427c-6.484-3.658-14.576-5.431-24.274-5.431-19.009,0-33.142,6.706-42.286,20.063-9.2,13.356-13.745,29.983-13.745,49.768v119.432h-54.534V2062.43Z" transform="translate(-5161.1 -2056.5)" fill="#ef6000"/>
        </g>
      </g>
      <g id="Group_11655" data-name="Group 11655" transform="translate(712.604 58.635)">
        <g id="Group_11654" data-name="Group 11654">
          <path id="Path_23661" data-name="Path 23661" d="M5569.3,2062.93h54.534v32.2a71.176,71.176,0,0,1,30.537-28.486q19.537-9.643,45.557-9.643,25.521,0,42.785,8.424,17.291,8.4,27.267,22.778a81.459,81.459,0,0,1,11.75,28.763q3.242,15.878,3.27,39.626v137.222h-54.534V2174.382a146.1,146.1,0,0,0-2.494-27.766,64.608,64.608,0,0,0-8.257-22.058,42.794,42.794,0,0,0-15.518-14.631c-6.484-3.658-14.575-5.431-24.274-5.431-19.009,0-33.142,6.706-42.286,20.063-9.2,13.356-13.744,29.983-13.744,49.768v119.432h-54.534V2062.93Z" transform="translate(-5569.3 -2057)" fill="#ef6000"/>
        </g>
      </g>
      <g id="Group_11657" data-name="Group 11657" transform="translate(937.004 55.476)">
        <g id="Group_11656" data-name="Group 11656">
          <path id="Path_23662" data-name="Path 23662" d="M6028.291,2188.966a103.116,103.116,0,0,0,4.489,23.277,52.566,52.566,0,0,0,10.751,19.065,49.3,49.3,0,0,0,18.788,12.858c7.648,3.159,17.181,4.711,28.542,4.711q23.526,0,34.028-8.923a54.252,54.252,0,0,0,15.518-21.282h55.033a80.521,80.521,0,0,1-10.751,28.486,87.543,87.543,0,0,1-21.78,24.053,109.268,109.268,0,0,1-31.535,16.571c-12.026,4.1-25.494,6.207-40.513,6.207q-29.512,0-51.32-9.421a101.487,101.487,0,0,1-36.3-25.771,107.18,107.18,0,0,1-21.78-38.628,153.1,153.1,0,0,1-7.26-47.551,145.59,145.59,0,0,1,7.759-48.05,112.833,112.833,0,0,1,22.279-38.629,99.216,99.216,0,0,1,36.023-25.494q21.532-9.145,49.048-9.145a112.947,112.947,0,0,1,42.286,7.925,106.7,106.7,0,0,1,34.527,22.058,100.674,100.674,0,0,1,31.257,74.1c0,3.99-.111,8.646-.277,14.132a141.666,141.666,0,0,1-2.272,19.564h-166.54Zm59.578-97.153q-25.521,0-42.563,14.354-17.042,14.382-17.015,42.619H6144.4q0-26.768-15.74-41.843C6118.129,2096.856,6104.5,2091.813,6087.869,2091.813Z" transform="translate(-5974.2 -2051.3)" fill="#ef6000"/>
        </g>
      </g>
      <g id="Group_11659" data-name="Group 11659" transform="translate(1166.669 55.366)">
        <g id="Group_11658" data-name="Group 11658">
          <path id="Path_23663" data-name="Path 23663" d="M6560.738,2141.271c-1.663-12.525-6.6-22.723-14.742-30.482q-12.3-11.639-40.291-11.638c-10.7,0-19.841,2-27.545,5.93a58.462,58.462,0,0,0-19.508,16.128,66.845,66.845,0,0,0-11.75,23.277,101.653,101.653,0,0,0-3.768,27.988,104.557,104.557,0,0,0,3.768,28.265,64.076,64.076,0,0,0,11.75,23.277,57.611,57.611,0,0,0,20.506,15.85c8.313,3.99,18.344,5.93,30.038,5.93q24.025,0,35.3-9.92,11.223-9.892,16.737-27.267h54.534a112.353,112.353,0,0,1-11.029,33.419,87.409,87.409,0,0,1-21.78,27.267,98.869,98.869,0,0,1-33.031,18.067q-19.286,6.4-44.78,6.429c-19.009,0-35.8-3.381-50.267-10.142a109.153,109.153,0,0,1-36.522-26.99,114.239,114.239,0,0,1-22.279-38.628,141.757,141.757,0,0,1,0-90.89,113.9,113.9,0,0,1,22.279-38.906,109.183,109.183,0,0,1,36.3-26.99q21.531-10.142,50.045-10.142c19.01,0,35.3,2.66,48.771,7.925,13.523,5.265,24.663,12.137,33.53,20.561a84.8,84.8,0,0,1,20.007,28.763,110.447,110.447,0,0,1,8.258,32.976h-54.534Z" transform="translate(-6388.6 -2051.101)" fill="#ef6000"/>
        </g>
      </g>
      <g id="Group_11661" data-name="Group 11661" transform="translate(1396.556 0)">
        <g id="Group_11660" data-name="Group 11660">
          <path id="Path_23664" data-name="Path 23664" d="M6958.967,2251.915c-4.322.665-10.2,1.33-17.513,2s-15.02,1-23,1a174.618,174.618,0,0,1-23-1.718,57.608,57.608,0,0,1-24.773-9.643c-7.87-5.265-14.41-13.356-19.786-24.274q-7.98-16.377-7.98-45.556V2066.2H6803.4v-45.113h39.515V1951.2h54.534v69.886h53.537V2066.2h-53.592v94.77c0,9.865.775,17.79,2.272,23.72s3.769,10.474,6.761,13.578a21.712,21.712,0,0,0,10.752,6.152,61.4,61.4,0,0,0,14.243,1.5h15.02c5.653,0,9.81-.5,12.525-1.5v47.5Z" transform="translate(-6803.4 -1951.2)" fill="#ef6000"/>
        </g>
      </g>
    </g>
    <g id="XMLID_8_" transform="translate(1008.4 1810.7)">
      <path id="XMLID_14_" d="M1451.764,2155.123a190.937,190.937,0,0,0-162.384,0,18.252,18.252,0,0,0,7.814,34.749,17.627,17.627,0,0,0,7.759-1.773,154.712,154.712,0,0,1,131.348,0,18.211,18.211,0,1,0,15.462-32.976Z" transform="translate(-1128.991 -1956.161)" fill="#ef6000"/>
      <path id="XMLID_13_" d="M1219.384,2027.238a18.243,18.243,0,0,0,7.427,34.915,17.775,17.775,0,0,0,7.426-1.607,258.741,258.741,0,0,1,209.824,0,18.26,18.26,0,1,0,14.853-33.364,294.944,294.944,0,0,0-239.53.055Z" transform="translate(-1097.624 -1895.89)" fill="#ef6000"/>
      <path id="XMLID_10_" d="M1491.395,1888.29v-10.53l-9.144-5.265c-.111-.055-.167-.111-.277-.166a.421.421,0,0,0-.222-.111,467.522,467.522,0,0,0-463.431-.111,5.539,5.539,0,0,0-.776.443l-9.089,5.21v9.976c0,.222-.055.388-.055.61a2.273,2.273,0,0,0,.055.61v282.758l2.6,4.323a470.522,470.522,0,0,0,66.45,85.792l.222.222a472.217,472.217,0,0,0,46.831,41.732,467.468,467.468,0,0,0,118.712,67.17l6.54,2.549,6.54-2.549a468.87,468.87,0,0,0,165.82-109.179,470.827,470.827,0,0,0,66.505-85.792l2.6-4.323V1888.622A.547.547,0,0,0,1491.395,1888.29ZM1454.927,2161.4a432.188,432.188,0,0,1-204.947,172.8,432.2,432.2,0,0,1-146.256-97.984l-.277-.277a432.693,432.693,0,0,1-58.469-74.6V1898.986a431.2,431.2,0,0,1,409.894,0V2161.4Z" transform="translate(-1008.4 -1810.7)" fill="#ef6000"/>
      <path id="XMLID_9_" d="M1432.622,2288.47a72.614,72.614,0,1,0-20.561,123.146v-42.9a36.742,36.742,0,0,1-2.993,2.882,36.051,36.051,0,1,1,12.858-27.655v54.313a17.755,17.755,0,0,0,1.275,6.65s.222.61.388.942a18.23,18.23,0,0,0,34.8-7.593v-54.312A72.038,72.038,0,0,0,1432.622,2288.47Z" transform="translate(-1144.321 -2016.075)" fill="#ef6000"/>
    </g>
  </g>
</svg>
