<svg xmlns="http://www.w3.org/2000/svg" width="150" height="76.515" viewBox="0 0 150 76.515">
  <g id="Group_3" data-name="Group 3" transform="translate(-381 -160)">
    <g id="Group_2" data-name="Group 2" transform="translate(440.247 160)">
      <path id="Path_42" data-name="Path 42" d="M754.258,1630.5H751.48l-11.942-11.941L727.6,1630.5h-2.777a1.09,1.09,0,0,1-.771-1.861l.061-.061,12.724-12.725,2.705-2.7,2.705,2.7,12.724,12.725.061.061A1.091,1.091,0,0,1,754.258,1630.5Z" transform="translate(-723.717 -1613.147)" fill="#fff"/>
      <path id="Path_43" data-name="Path 43" d="M753.968,2299.794a1.091,1.091,0,0,1,.771,1.862l-.07.069-12.724,12.725-2.705,2.705-2.705-2.705-12.723-12.723-.07-.07a1.091,1.091,0,0,1,.771-1.862h2.777l11.95,11.95,8.334-8.334h-5.818l3.157-3.636h5.5Z" transform="translate(-723.42 -2280.885)" fill="#fff"/>
      <path id="Path_44" data-name="Path 44" d="M1231.737,2299.779l-3.156,3.634h-3.351l3.156-3.634Z" transform="translate(-1211.424 -2280.889)" fill="#fff"/>
    </g>
    <g id="Group_1" data-name="Group 1" transform="translate(381 198.356)">
      <path id="Path_45" data-name="Path 45" d="M2097.684,1942.706v14.639h-3.424v-1.979a4.724,4.724,0,0,1-1.964,1.728,5.736,5.736,0,0,1-2.56.628,7.434,7.434,0,0,1-3.048-.612,7.131,7.131,0,0,1-2.372-1.681,7.827,7.827,0,0,1-1.539-2.45,8.167,8.167,0,0,1,0-5.89,7.779,7.779,0,0,1,1.539-2.466,7.141,7.141,0,0,1,2.372-1.681,7.456,7.456,0,0,1,3.048-.613,5.727,5.727,0,0,1,2.56.629,4.727,4.727,0,0,1,1.964,1.727v-1.979h3.424Zm-7.759,11.968a4.119,4.119,0,0,0,1.775-.377,4.255,4.255,0,0,0,1.366-1.005,4.538,4.538,0,0,0,.88-1.476,5.267,5.267,0,0,0,0-3.582,4.565,4.565,0,0,0-.88-1.476,4.255,4.255,0,0,0-1.366-1.005,4.111,4.111,0,0,0-1.775-.377,4.018,4.018,0,0,0-1.759.377,4.253,4.253,0,0,0-2.214,2.481,5.525,5.525,0,0,0,0,3.582,4.253,4.253,0,0,0,2.214,2.481A4.012,4.012,0,0,0,2089.925,1954.674Z" transform="translate(-2082.229 -1935.354)" fill="#fff"/>
      <path id="Path_46" data-name="Path 46" d="M2683.331,1957.317v-8.2a5.188,5.188,0,0,0-.645-2.781,2.285,2.285,0,0,0-2.089-1.021,3.244,3.244,0,0,0-1.209.22,2.374,2.374,0,0,0-.975.754,3.872,3.872,0,0,0-.659,1.4,8.486,8.486,0,0,0-.235,2.184v7.445h-3.424v-8.231a5.3,5.3,0,0,0-.613-2.765,2.217,2.217,0,0,0-2.057-1,3.354,3.354,0,0,0-1.226.219,2.344,2.344,0,0,0-.99.754,4.032,4.032,0,0,0-.675,1.4,7.911,7.911,0,0,0-.251,2.183v7.445h-3.424v-14.639h3.424v2.042a4.169,4.169,0,0,1,1.555-1.712,4.515,4.515,0,0,1,2.529-.707,5.3,5.3,0,0,1,3.078.754,4.356,4.356,0,0,1,1.54,1.853,4.538,4.538,0,0,1,1.728-1.853,5.062,5.062,0,0,1,2.764-.754,5.977,5.977,0,0,1,2.67.518,4.291,4.291,0,0,1,1.618,1.335,4.71,4.71,0,0,1,.785,1.838,10.4,10.4,0,0,1,.2,2.057v9.267h-3.423Z" transform="translate(-2648.829 -1935.327)" fill="#fff"/>
      <path id="Path_47" data-name="Path 47" d="M3495.942,1703.51a9.661,9.661,0,0,1,.507-3.162c.045-.128.091-.254.141-.378a7.749,7.749,0,0,0-1.273-1.863,7.158,7.158,0,0,0-2.372-1.68,7.439,7.439,0,0,0-3.048-.613,5.735,5.735,0,0,0-2.56.628,4.734,4.734,0,0,0-1.963,1.728v-9.331h-3.424v21.99h3.424v-1.979a4.725,4.725,0,0,0,1.963,1.728,5.737,5.737,0,0,0,2.56.627,7.451,7.451,0,0,0,3.048-.612,7.153,7.153,0,0,0,2.372-1.681,7.739,7.739,0,0,0,1.26-1.827c-.058-.148-.111-.3-.161-.453A10.163,10.163,0,0,1,3495.942,1703.51Zm-2.26,1.791a4.256,4.256,0,0,1-2.215,2.481,4.012,4.012,0,0,1-1.759.377,4.189,4.189,0,0,1-1.807-.377,4.258,4.258,0,0,1-1.366-1,4.315,4.315,0,0,1-.863-1.477,5.521,5.521,0,0,1,0-3.581,4.312,4.312,0,0,1,.863-1.477,4.267,4.267,0,0,1,1.366-1.005,4.2,4.2,0,0,1,1.807-.377,4.019,4.019,0,0,1,1.759.377,4.26,4.26,0,0,1,2.215,2.482A5.521,5.521,0,0,1,3493.683,1705.3Z" transform="translate(-3443.442 -1688.84)" fill="#fff"/>
      <path id="Path_48" data-name="Path 48" d="M4006.763,1951.062a6.558,6.558,0,0,0,.282,1.477,3.34,3.34,0,0,0,.676,1.209,3.119,3.119,0,0,0,1.178.817,4.693,4.693,0,0,0,1.79.3,3.268,3.268,0,0,0,2.137-.565,3.442,3.442,0,0,0,.973-1.351h3.456a5.14,5.14,0,0,1-.675,1.806,5.52,5.52,0,0,1-1.367,1.524,6.843,6.843,0,0,1-1.979,1.053,7.727,7.727,0,0,1-2.544.392,8,8,0,0,1-3.219-.6,6.4,6.4,0,0,1-2.279-1.634,6.844,6.844,0,0,1-1.366-2.45,9.787,9.787,0,0,1-.456-3.016,9.3,9.3,0,0,1,.488-3.047,7.215,7.215,0,0,1,1.4-2.451,6.242,6.242,0,0,1,2.261-1.618,7.725,7.725,0,0,1,3.078-.581,7.03,7.03,0,0,1,2.656.5,6.746,6.746,0,0,1,2.167,1.4,6.4,6.4,0,0,1,1.964,4.7c0,.251-.006.55-.015.9a9.121,9.121,0,0,1-.142,1.241Zm3.739-6.156a3.973,3.973,0,0,0-2.671.911,3.353,3.353,0,0,0-1.068,2.7h7.288a3.353,3.353,0,0,0-3.549-3.613Z" transform="translate(-3950.517 -1935.355)" fill="#fff"/>
      <path id="Path_49" data-name="Path 49" d="M4543.576,1952.546a6.735,6.735,0,0,0-.675-.126,6.009,6.009,0,0,0-.676-.031,4.324,4.324,0,0,0-3.361,1.272,5.864,5.864,0,0,0-1.162,4.036v6.315h-3.424v-14.639h3.424v2.356a3.721,3.721,0,0,1,.706-.958,5.4,5.4,0,0,1,1.069-.817,5.8,5.8,0,0,1,1.32-.566,5.156,5.156,0,0,1,1.429-.2,3.57,3.57,0,0,1,1.351.22Z" transform="translate(-4466.819 -1942.022)" fill="#fff"/>
      <g id="Group_23" data-name="Group 23" transform="translate(79.43 6.862)">
        <path id="Path_50" data-name="Path 50" d="M4984.971,1967.93a8.216,8.216,0,0,1-.552,3.177,5.58,5.58,0,0,1-1.555,2.17,6.48,6.48,0,0,1-2.454,1.259,12.219,12.219,0,0,1-3.305.409,8.932,8.932,0,0,1-3.208-.52,6.9,6.9,0,0,1-2.265-1.368,5.968,5.968,0,0,1-1.4-1.935,6.257,6.257,0,0,1-.55-2.249h3.459a3.253,3.253,0,0,0,1.1,2.091,4.042,4.042,0,0,0,2.832.9,5.073,5.073,0,0,0,3.24-.928,3.613,3.613,0,0,0,1.165-3v-2.705a4.728,4.728,0,0,1-1.968,1.73,5.748,5.748,0,0,1-2.563.629,7.438,7.438,0,0,1-3.051-.614,7.152,7.152,0,0,1-2.375-1.683,7.8,7.8,0,0,1-1.541-2.454,8.178,8.178,0,0,1,0-5.9,7.768,7.768,0,0,1,1.541-2.47,7.153,7.153,0,0,1,2.375-1.683,7.453,7.453,0,0,1,3.051-.614,5.735,5.735,0,0,1,2.563.629,4.721,4.721,0,0,1,1.968,1.73v-1.982h3.429Zm-7.832-12.709a4,4,0,0,0-1.762.378,4.258,4.258,0,0,0-2.219,2.485,5.537,5.537,0,0,0,0,3.587,4.262,4.262,0,0,0,2.219,2.485,4.013,4.013,0,0,0,1.762.377,4.131,4.131,0,0,0,1.777-.377,4.255,4.255,0,0,0,1.368-1.007,4.523,4.523,0,0,0,.88-1.478,5.275,5.275,0,0,0,0-3.587,4.531,4.531,0,0,0-.88-1.479,4.242,4.242,0,0,0-1.368-1.006A4.118,4.118,0,0,0,4977.139,1955.221Z" transform="translate(-4969.432 -1951.786)" fill="#fff"/>
        <path id="Path_51" data-name="Path 51" d="M5563.325,1955.551a6.406,6.406,0,0,0-.678-.126,6.013,6.013,0,0,0-.675-.031,4.337,4.337,0,0,0-3.368,1.274,5.879,5.879,0,0,0-1.162,4.042v6.323h-3.429v-14.66h3.429v2.359a3.753,3.753,0,0,1,.707-.959,5.357,5.357,0,0,1,1.072-.818,5.687,5.687,0,0,1,1.32-.566,5.134,5.134,0,0,1,1.431-.2,3.576,3.576,0,0,1,1.353.22Z" transform="translate(-5537.931 -1951.802)" fill="#fff"/>
        <path id="Path_52" data-name="Path 52" d="M5876.308,1967.592a7.9,7.9,0,0,1-3.176-.614,7.213,7.213,0,0,1-2.423-1.683,7.641,7.641,0,0,1-1.557-2.454,7.905,7.905,0,0,1-.553-2.957,8,8,0,0,1,.553-2.941,7.616,7.616,0,0,1,1.557-2.469,7.225,7.225,0,0,1,2.423-1.683,7.891,7.891,0,0,1,3.176-.614,8.01,8.01,0,0,1,3.193.614,7.373,7.373,0,0,1,2.453,1.683,7.488,7.488,0,0,1,1.573,2.469,8.172,8.172,0,0,1,0,5.9,7.589,7.589,0,0,1-1.573,2.454,7.362,7.362,0,0,1-2.453,1.683A8.018,8.018,0,0,1,5876.308,1967.592Zm0-3.051a4.136,4.136,0,0,0,1.778-.377,4.261,4.261,0,0,0,1.367-1.007,4.52,4.52,0,0,0,.881-1.479,5.25,5.25,0,0,0,0-3.586,4.528,4.528,0,0,0-.881-1.479,4.262,4.262,0,0,0-1.367-1.007,4.136,4.136,0,0,0-1.778-.377,4.045,4.045,0,0,0-1.762.377,4.259,4.259,0,0,0-2.217,2.486,5.523,5.523,0,0,0,0,3.586,4.258,4.258,0,0,0,2.217,2.485A4.019,4.019,0,0,0,5876.308,1964.541Z" transform="translate(-5843.863 -1951.794)" fill="#fff"/>
        <path id="Path_53" data-name="Path 53" d="M6463.322,1952.179v14.66h-3.429v-2.044a4.5,4.5,0,0,1-1.92,1.808,6.316,6.316,0,0,1-2.862.614,6.06,6.06,0,0,1-2.689-.535,4.41,4.41,0,0,1-1.715-1.448,5.163,5.163,0,0,1-.739-1.824,12.865,12.865,0,0,1-.206-2.517v-8.714h3.432v7.582a9.389,9.389,0,0,0,.155,1.762,4.109,4.109,0,0,0,.52,1.4,2.668,2.668,0,0,0,.976.927,3.057,3.057,0,0,0,1.525.347,2.989,2.989,0,0,0,2.659-1.274,5.505,5.505,0,0,0,.864-3.161v-7.582Z" transform="translate(-6409.038 -1951.796)" fill="#fff"/>
        <path id="Path_54" data-name="Path 54" d="M6971.575,1940.636a4.723,4.723,0,0,1,1.967-1.73,5.738,5.738,0,0,1,2.564-.629,7.465,7.465,0,0,1,3.052.613,7.107,7.107,0,0,1,2.373,1.683,7.807,7.807,0,0,1,1.542,2.47,8.17,8.17,0,0,1,0,5.9,7.8,7.8,0,0,1-1.542,2.454,7.11,7.11,0,0,1-2.373,1.683,7.453,7.453,0,0,1-3.052.613,5.739,5.739,0,0,1-2.564-.629,4.743,4.743,0,0,1-1.967-1.73v9.344h-3.427v-22.021h3.427Zm4.343.692a4.21,4.21,0,0,0-1.812.377,4.253,4.253,0,0,0-1.365,1.007,4.314,4.314,0,0,0-.866,1.479,5.516,5.516,0,0,0,0,3.586,4.314,4.314,0,0,0,.866,1.479,4.261,4.261,0,0,0,1.365,1.006,4.21,4.21,0,0,0,1.812.378,4.023,4.023,0,0,0,1.762-.378,4.266,4.266,0,0,0,2.218-2.485,5.554,5.554,0,0,0,0-3.586,4.265,4.265,0,0,0-2.218-2.485,4.023,4.023,0,0,0-1.762-.377Z" transform="translate(-6913.162 -1938.276)" fill="#fff"/>
      </g>
      <g id="Group_24" data-name="Group 24" transform="translate(77.85 30.875)">
        <path id="Path_55" data-name="Path 55" d="M4912.007,2826.9v-5.259h2.2a1.965,1.965,0,0,1,.789.153,1.875,1.875,0,0,1,.6.415,1.815,1.815,0,0,1,.386.606,2.008,2.008,0,0,1,0,1.456,1.8,1.8,0,0,1-.386.6,1.848,1.848,0,0,1-.6.415,1.947,1.947,0,0,1-.788.154h-.98v1.457h-1.219Zm1.217-2.45h.833a.817.817,0,0,0,.613-.273.869.869,0,0,0,.17-.288,1.006,1.006,0,0,0,.06-.345,1.018,1.018,0,0,0-.06-.346.885.885,0,0,0-.17-.291.816.816,0,0,0-.613-.273h-.833v1.816Z" transform="translate(-4912.006 -2821.353)" fill="#fff"/>
        <path id="Path_56" data-name="Path 56" d="M5065.514,2811.839a.7.7,0,0,1,.21-.517.711.711,0,0,1,.526-.209.77.77,0,0,1,.293.054.741.741,0,0,1,.236.153.662.662,0,0,1,.159.233.755.755,0,0,1,.057.286.744.744,0,0,1-.057.282.778.778,0,0,1-.159.232.731.731,0,0,1-.236.158.773.773,0,0,1-.293.057.73.73,0,0,1-.68-.447A.7.7,0,0,1,5065.514,2811.839Zm.164,4.822v-3.62h1.149v3.62Z" transform="translate(-5061.291 -2811.113)" fill="#fff"/>
        <path id="Path_57" data-name="Path 57" d="M5127.6,2879.537a2,2,0,0,1,.137-.733,1.762,1.762,0,0,1,.4-.605,1.938,1.938,0,0,1,.632-.415,2.148,2.148,0,0,1,.835-.154,2.191,2.191,0,0,1,.849.154,1.9,1.9,0,0,1,.633.415,1.8,1.8,0,0,1,.4.605,1.916,1.916,0,0,1,.141.733,2,2,0,0,1-.141.736,1.8,1.8,0,0,1-.4.607,1.9,1.9,0,0,1-.633.414,2.192,2.192,0,0,1-.849.154,2.153,2.153,0,0,1-.835-.154,1.933,1.933,0,0,1-.632-.414,1.766,1.766,0,0,1-.4-.6A2.028,2.028,0,0,1,5127.6,2879.537Zm1.147,0a1.064,1.064,0,0,0,.063.364.865.865,0,0,0,.171.3.8.8,0,0,0,.269.2.865.865,0,0,0,.353.072.886.886,0,0,0,.356-.072.788.788,0,0,0,.275-.2.985.985,0,0,0,.177-.294,1.074,1.074,0,0,0,0-.725.955.955,0,0,0-.177-.3.815.815,0,0,0-.273-.2.86.86,0,0,0-.359-.074.819.819,0,0,0-.622.274.848.848,0,0,0-.171.3,1,1,0,0,0-.062.359Z" transform="translate(-5121.667 -2875.799)" fill="#fff"/>
        <path id="Path_58" data-name="Path 58" d="M5287.777,2881.588v-3.619h1.148v.526a1.047,1.047,0,0,1,.456-.455,1.531,1.531,0,0,1,.732-.163,1.567,1.567,0,0,1,.609.11,1.023,1.023,0,0,1,.408.3,1.092,1.092,0,0,1,.227.484,3.3,3.3,0,0,1,.055.665v2.148h-1.146v-1.855a1.281,1.281,0,0,0-.142-.633.521.521,0,0,0-.5-.243.606.606,0,0,0-.527.247,1.142,1.142,0,0,0-.175.666v1.82Z" transform="translate(-5277.44 -2876.041)" fill="#fff"/>
        <path id="Path_59" data-name="Path 59" d="M5434.186,2879.529a2.111,2.111,0,0,1,.123-.745,1.693,1.693,0,0,1,.369-.6,1.746,1.746,0,0,1,.6-.41,2.135,2.135,0,0,1,.833-.15,2.031,2.031,0,0,1,.768.136,1.85,1.85,0,0,1,.586.361,1.581,1.581,0,0,1,.508,1.157c0,.076,0,.156,0,.24a1.783,1.783,0,0,1-.033.292h-2.6a.964.964,0,0,0,.05.281.6.6,0,0,0,.135.23.626.626,0,0,0,.243.155,1.054,1.054,0,0,0,.373.057.863.863,0,0,0,.453-.1.519.519,0,0,0,.213-.235h1.129a1.225,1.225,0,0,1-.175.481,1.442,1.442,0,0,1-.369.392,1.834,1.834,0,0,1-.541.268,2.594,2.594,0,0,1-1.542-.04,1.635,1.635,0,0,1-.992-1A2.192,2.192,0,0,1,5434.186,2879.529Zm1.147-.381h1.514a.735.735,0,0,0-.208-.555.728.728,0,0,0-.533-.2.8.8,0,0,0-.555.2A.724.724,0,0,0,5435.333,2879.147Z" transform="translate(-5419.818 -2875.791)" fill="#fff"/>
        <path id="Path_60" data-name="Path 60" d="M5584.6,2879.529a2.156,2.156,0,0,1,.123-.745,1.692,1.692,0,0,1,.368-.6,1.728,1.728,0,0,1,.6-.41,2.136,2.136,0,0,1,.833-.15,2.039,2.039,0,0,1,.768.136,1.878,1.878,0,0,1,.586.361,1.581,1.581,0,0,1,.508,1.157c0,.076,0,.156,0,.24a1.731,1.731,0,0,1-.033.292h-2.6a1.053,1.053,0,0,0,.05.281.6.6,0,0,0,.135.23.626.626,0,0,0,.243.155,1.054,1.054,0,0,0,.373.057.863.863,0,0,0,.453-.1.519.519,0,0,0,.213-.235h1.129a1.225,1.225,0,0,1-.175.481,1.435,1.435,0,0,1-.369.392,1.87,1.87,0,0,1-.541.268,2.594,2.594,0,0,1-1.542-.04,1.642,1.642,0,0,1-.992-1A2.249,2.249,0,0,1,5584.6,2879.529Zm1.147-.381h1.514a.744.744,0,0,0-.205-.555.734.734,0,0,0-.536-.2.8.8,0,0,0-.555.2A.723.723,0,0,0,5585.743,2879.147Z" transform="translate(-5566.091 -2875.791)" fill="#fff"/>
        <path id="Path_61" data-name="Path 61" d="M5736.959,2882.649v-3.62h1.148v.588a1.182,1.182,0,0,1,.425-.453,1.212,1.212,0,0,1,.682-.2.858.858,0,0,1,.345.064v1.045c-.08-.019-.151-.034-.206-.042a1.432,1.432,0,0,0-.2-.013,1.043,1.043,0,0,0-.758.279,1.271,1.271,0,0,0-.286.939v1.412Z" transform="translate(-5714.265 -2877.1)" fill="#fff"/>
        <path id="Path_62" data-name="Path 62" d="M5840.352,2811.84a.721.721,0,0,1,.737-.726.789.789,0,0,1,.3.054.76.76,0,0,1,.236.152.728.728,0,0,1,.212.52.676.676,0,0,1-.057.281.709.709,0,0,1-.156.234.738.738,0,0,1-.531.214.71.71,0,0,1-.288-.057.738.738,0,0,1-.392-.391A.709.709,0,0,1,5840.352,2811.84Zm.165,4.821v-3.619h1.148v3.619Z" transform="translate(-5814.812 -2811.114)" fill="#fff"/>
        <path id="Path_63" data-name="Path 63" d="M5902.039,2881.588v-3.619h1.148v.526a1.027,1.027,0,0,1,.454-.455,1.539,1.539,0,0,1,.734-.163,1.584,1.584,0,0,1,.609.11,1.011,1.011,0,0,1,.406.3,1.117,1.117,0,0,1,.229.484,3.7,3.7,0,0,1,.055.665v2.148h-1.15v-1.855a1.256,1.256,0,0,0-.139-.633.523.523,0,0,0-.5-.243.6.6,0,0,0-.526.247,1.142,1.142,0,0,0-.172.666v1.82Z" transform="translate(-5874.803 -2876.041)" fill="#fff"/>
        <path id="Path_64" data-name="Path 64" d="M6047.734,2879.8a2.223,2.223,0,0,1,.123-.756,1.677,1.677,0,0,1,.911-1,1.723,1.723,0,0,1,.723-.146,1.393,1.393,0,0,1,.654.161,1.07,1.07,0,0,1,.465.447v-.517h1.146v3.6a2.113,2.113,0,0,1-.139.822,1.384,1.384,0,0,1-.427.547,1.791,1.791,0,0,1-.609.291,3.23,3.23,0,0,1-.857.1,2.783,2.783,0,0,1-.853-.112,1.671,1.671,0,0,1-.569-.309,1.474,1.474,0,0,1-.373-.469,1.382,1.382,0,0,1-.148-.567h1.147a.579.579,0,0,0,.22.378.862.862,0,0,0,.576.169,1.016,1.016,0,0,0,.645-.187.708.708,0,0,0,.243-.6v-.579a1.123,1.123,0,0,1-.453.406,1.388,1.388,0,0,1-.654.155,1.825,1.825,0,0,1-.713-.135,1.6,1.6,0,0,1-.562-.38,1.706,1.706,0,0,1-.363-.577A2.031,2.031,0,0,1,6047.734,2879.8Zm1.147,0a1.093,1.093,0,0,0,.062.358.849.849,0,0,0,.17.293.918.918,0,0,0,.271.2.81.81,0,0,0,.352.074.854.854,0,0,0,.633-.273.9.9,0,0,0,.175-.293.984.984,0,0,0,.065-.358.959.959,0,0,0-.065-.353.974.974,0,0,0-.175-.293.81.81,0,0,0-.276-.2.842.842,0,0,0-.357-.073.826.826,0,0,0-.352.073.8.8,0,0,0-.271.2.939.939,0,0,0-.17.293A1.012,1.012,0,0,0,6048.882,2879.8Z" transform="translate(-6016.489 -2876.066)" fill="#fff"/>
        <path id="Path_65" data-name="Path 65" d="M6287.8,2826.909v-5.259h1.23v5.259Z" transform="translate(-6249.949 -2821.359)" fill="#fff"/>
        <path id="Path_66" data-name="Path 66" d="M6347.4,2881.588v-3.619h1.147v.526a1.043,1.043,0,0,1,.454-.455,1.539,1.539,0,0,1,.734-.163,1.577,1.577,0,0,1,.609.11,1,1,0,0,1,.406.3,1.072,1.072,0,0,1,.227.484,3.528,3.528,0,0,1,.057.665v2.148h-1.148v-1.855a1.282,1.282,0,0,0-.139-.633.527.527,0,0,0-.5-.243.6.6,0,0,0-.524.247,1.128,1.128,0,0,0-.175.666v1.82Z" transform="translate(-6307.909 -2876.041)" fill="#fff"/>
        <path id="Path_67" data-name="Path 67" d="M6494.48,2881.588v-3.619h1.148v.526a1.04,1.04,0,0,1,.454-.455,1.535,1.535,0,0,1,.731-.163,1.6,1.6,0,0,1,.612.11,1.011,1.011,0,0,1,.406.3,1.092,1.092,0,0,1,.227.484,3.7,3.7,0,0,1,.057.665v2.148h-1.148v-1.855a1.255,1.255,0,0,0-.142-.633.521.521,0,0,0-.5-.243.606.606,0,0,0-.526.247,1.142,1.142,0,0,0-.172.666v1.82Z" transform="translate(-6450.945 -2876.041)" fill="#fff"/>
        <path id="Path_68" data-name="Path 68" d="M6636.488,2879.535a1.919,1.919,0,0,1,.137-.733,1.754,1.754,0,0,1,.4-.6,1.911,1.911,0,0,1,.63-.415,2.162,2.162,0,0,1,.836-.154,2.185,2.185,0,0,1,.848.154,1.852,1.852,0,0,1,.633.415,1.807,1.807,0,0,1,.4.6,2.007,2.007,0,0,1,0,1.469,1.793,1.793,0,0,1-.4.607,1.855,1.855,0,0,1-.633.415,2.189,2.189,0,0,1-.848.153,2.162,2.162,0,0,1-.836-.153,1.919,1.919,0,0,1-.63-.415,1.77,1.77,0,0,1-.4-.6A1.938,1.938,0,0,1,6636.488,2879.535Zm1.148,0a1,1,0,0,0,.059.365.91.91,0,0,0,.172.295.8.8,0,0,0,.621.272.9.9,0,0,0,.359-.072.793.793,0,0,0,.276-.2,1.01,1.01,0,0,0,.175-.294,1.059,1.059,0,0,0,0-.724,1.006,1.006,0,0,0-.175-.3.832.832,0,0,0-.276-.2.847.847,0,0,0-.359-.073.816.816,0,0,0-.621.273.882.882,0,0,0-.172.3A1.025,1.025,0,0,0,6637.636,2879.535Z" transform="translate(-6589.046 -2875.799)" fill="#fff"/>
        <path id="Path_69" data-name="Path 69" d="M6772.848,2881.229h1.2l.876,2.274.888-2.274h1.2l-1.639,3.619h-.917Z" transform="translate(-6721.654 -2879.301)" fill="#fff"/>
        <path id="Path_70" data-name="Path 70" d="M6915.613,2879.805a2.226,2.226,0,0,1,.13-.756,1.77,1.77,0,0,1,.359-.6,1.739,1.739,0,0,1,.56-.4,1.78,1.78,0,0,1,.725-.146,1.228,1.228,0,0,1,.342.049,1.39,1.39,0,0,1,.317.132,1.127,1.127,0,0,1,.26.195.905.905,0,0,1,.179.233V2878h1.15v3.619h-1.15v-.509a.846.846,0,0,1-.179.235,1.068,1.068,0,0,1-.26.188,1.55,1.55,0,0,1-.317.128,1.22,1.22,0,0,1-.342.05,1.776,1.776,0,0,1-.723-.146,1.687,1.687,0,0,1-.562-.4,1.759,1.759,0,0,1-.359-.6A2.223,2.223,0,0,1,6915.613,2879.805Zm1.15,0a.987.987,0,0,0,.064.358.852.852,0,0,0,.177.293.824.824,0,0,0,.619.274.858.858,0,0,0,.354-.075.9.9,0,0,0,.272-.2.934.934,0,0,0,.172-.292.992.992,0,0,0,.066-.359.954.954,0,0,0-.066-.352,1.011,1.011,0,0,0-.172-.294.852.852,0,0,0-.27-.2.871.871,0,0,0-.356-.073.818.818,0,0,0-.35.073.775.775,0,0,0-.269.2.971.971,0,0,0-.241.646Z" transform="translate(-6860.491 -2876.068)" fill="#fff"/>
        <path id="Path_71" data-name="Path 71" d="M7077.09,2846.09v-.909h.564v-1.02h1.147v1.02h.822v.909h-.822v1.26a1.092,1.092,0,0,0,.038.313.386.386,0,0,0,.1.178.4.4,0,0,0,.156.085.809.809,0,0,0,.2.023c.071,0,.145,0,.217-.006a1.518,1.518,0,0,0,.2-.02v.876c-.085.016-.191.028-.318.042s-.276.018-.446.018a3.224,3.224,0,0,1-.43-.029,1,1,0,0,1-.421-.151.89.89,0,0,1-.316-.374,1.608,1.608,0,0,1-.125-.7v-1.517Z" transform="translate(-7017.526 -2843.251)" fill="#fff"/>
        <path id="Path_72" data-name="Path 72" d="M7180.215,2811.838a.7.7,0,0,1,.212-.517.714.714,0,0,1,.524-.209.786.786,0,0,1,.295.055.772.772,0,0,1,.236.152.7.7,0,0,1,.158.233.741.741,0,0,1,.057.286.726.726,0,0,1-.057.282.729.729,0,0,1-.395.391.755.755,0,0,1-.295.057.722.722,0,0,1-.288-.057.738.738,0,0,1-.39-.391A.686.686,0,0,1,7180.215,2811.838Zm.165,4.822v-3.62h1.148v3.62Z" transform="translate(-7117.813 -2811.112)" fill="#fff"/>
        <path id="Path_73" data-name="Path 73" d="M7242.289,2879.536a1.956,1.956,0,0,1,.139-.733,1.775,1.775,0,0,1,.4-.6,1.906,1.906,0,0,1,.63-.415,2.169,2.169,0,0,1,.836-.155,2.222,2.222,0,0,1,.848.155,1.854,1.854,0,0,1,.633.415,1.833,1.833,0,0,1,.4.6,1.905,1.905,0,0,1,.139.733,1.876,1.876,0,0,1-.142.736,1.773,1.773,0,0,1-.4.607,1.864,1.864,0,0,1-.633.414,2.189,2.189,0,0,1-.848.154,2.164,2.164,0,0,1-.836-.154,1.932,1.932,0,0,1-.63-.414,1.782,1.782,0,0,1-.4-.6A1.979,1.979,0,0,1,7242.289,2879.536Zm1.15,0a1.013,1.013,0,0,0,.059.365.933.933,0,0,0,.172.3.8.8,0,0,0,.27.2.823.823,0,0,0,.352.072.894.894,0,0,0,.359-.072.821.821,0,0,0,.276-.2,1.013,1.013,0,0,0,.175-.294,1.063,1.063,0,0,0,0-.725,1,1,0,0,0-.175-.3.85.85,0,0,0-.635-.274.819.819,0,0,0-.621.274.91.91,0,0,0-.172.3A1.032,1.032,0,0,0,7243.439,2879.536Z" transform="translate(-7178.18 -2875.799)" fill="#fff"/>
        <path id="Path_74" data-name="Path 74" d="M7402.477,2881.588v-3.619h1.15v.526a1.029,1.029,0,0,1,.453-.455,1.54,1.54,0,0,1,.734-.163,1.58,1.58,0,0,1,.609.11,1.03,1.03,0,0,1,.406.3,1.092,1.092,0,0,1,.227.484,3.3,3.3,0,0,1,.055.665v2.148h-1.148v-1.855a1.256,1.256,0,0,0-.139-.633.523.523,0,0,0-.5-.243.6.6,0,0,0-.526.247,1.142,1.142,0,0,0-.172.666v1.82Z" transform="translate(-7333.961 -2876.041)" fill="#fff"/>
      </g>
    </g>
  </g>
</svg>
